<svg width="533" height="305" viewBox="0 0 533 305" fill="none" xmlns="http://www.w3.org/2000/svg">
  <mask id="mask0_206_18110" style="mask-type:alpha" maskUnits="userSpaceOnUse" x="0" y="0" width="533" height="305">
  <path d="M504.703 87.1309C504.703 55.0748 478.716 29.0881 446.66 29.0879H87.1309C55.0748 29.088 29.088 55.0748 29.0879 87.1309V275.912H504.703V87.1309ZM532.879 304.088H0.912109V87.1309C0.912262 39.5135 39.5135 0.912266 87.1309 0.912109H446.66C494.277 0.912274 532.879 39.5135 532.879 87.1309V304.088Z" fill="#3463A9"/>
  <path d="M424.683 146.865C424.683 125.391 407.273 107.981 385.799 107.981H147.992C126.518 107.981 109.108 125.391 109.108 146.865V275.912H424.683V146.865ZM452.858 304.088H80.9326V146.865C80.9326 109.829 110.956 79.8055 147.992 79.8055H385.799C422.835 79.8055 452.858 109.829 452.858 146.865V304.088Z" fill="#3463A9"/>
  <path d="M345.789 202.654C345.789 194.562 339.229 188.002 331.137 188.002H202.654C194.562 188.002 188.002 194.562 188.002 202.654V275.912H345.789V202.654ZM373.965 304.088H159.826V202.654C159.826 179.001 179.001 159.826 202.654 159.826H331.137C354.79 159.826 373.965 179.001 373.965 202.654V304.088Z" fill="#3463A9"/>
  <path d="M295.072 304.088H238.719V254.498C238.72 246.406 245.279 239.847 253.371 239.847H280.42C288.512 239.847 295.072 246.406 295.072 254.498V304.088Z" fill="#3463A9"/>
  </mask>
  <g mask="url(#mask0_206_18110)">
  <path d="M2.03882 -8.10449H531.752V271.967H2.03882V-8.10449Z" fill="#3463A9"/>
  </g>
  </svg>
