<svg width="793" height="48" viewBox="0 0 793 48" fill="none" xmlns="http://www.w3.org/2000/svg">
  <rect width="793" height="48" fill="#F6F6FD"/>
  <line x1="73.5" y1="24.5" x2="180.5" y2="24.5" stroke="#4649D0" stroke-width="3" stroke-linecap="round" stroke-dasharray="0.5 12"/>
  <line x1="179.5" y1="24.5" x2="286.5" y2="24.5" stroke="#4649D0" stroke-width="3" stroke-linecap="round" stroke-dasharray="0.5 12"/>
  <line x1="277.5" y1="24.5" x2="384.5" y2="24.5" stroke="#4649D0" stroke-width="3" stroke-linecap="round" stroke-dasharray="0.5 12"/>
  <line x1="397.5" y1="24.5" x2="504.5" y2="24.5" stroke="#4649D0" stroke-width="3" stroke-linecap="round" stroke-dasharray="0.5 12"/>
  <line x1="505.5" y1="24.5" x2="612.5" y2="24.5" stroke="#4649D0" stroke-width="3" stroke-linecap="round" stroke-dasharray="0.5 12"/>
  <line x1="613.5" y1="24.5" x2="720.5" y2="24.5" stroke="#4649D0" stroke-width="3" stroke-linecap="round" stroke-dasharray="0.5 12"/>
  <circle cx="72.5" cy="24" r="16" fill="#24268E"/>
  <path d="M69.1591 30V28.288H72.2311V20.352H72.0871L69.6551 23.232L68.3431 22.128L71.1111 18.832H74.2951V28.288H76.8551V30H69.1591Z" fill="white"/>
  <circle cx="180.5" cy="24" r="16" fill="#24268E"/>
  <path d="M184.439 30H176.695V28.048L180.199 24.976C180.796 24.4533 181.234 23.984 181.511 23.568C181.788 23.1413 181.927 22.6827 181.927 22.192V21.984C181.927 21.4933 181.767 21.12 181.447 20.864C181.127 20.5973 180.738 20.464 180.279 20.464C179.703 20.464 179.266 20.6293 178.967 20.96C178.668 21.28 178.455 21.6693 178.327 22.128L176.503 21.424C176.62 21.0507 176.786 20.6987 176.999 20.368C177.212 20.0267 177.479 19.728 177.799 19.472C178.13 19.216 178.514 19.0133 178.951 18.864C179.388 18.7147 179.89 18.64 180.455 18.64C181.042 18.64 181.564 18.7253 182.023 18.896C182.482 19.056 182.866 19.2853 183.175 19.584C183.495 19.8827 183.735 20.2347 183.895 20.64C184.066 21.0453 184.151 21.488 184.151 21.968C184.151 22.4373 184.076 22.864 183.927 23.248C183.778 23.632 183.575 24 183.319 24.352C183.063 24.6933 182.764 25.024 182.423 25.344C182.082 25.6533 181.719 25.968 181.335 26.288L178.983 28.224H184.439V30Z" fill="white"/>
  <circle cx="288.5" cy="24" r="16" fill="#24268E"/>
  <path d="M287.895 23.344C288.535 23.344 289.004 23.216 289.303 22.96C289.612 22.6933 289.767 22.3573 289.767 21.952V21.84C289.767 21.3813 289.618 21.024 289.319 20.768C289.031 20.5013 288.631 20.368 288.119 20.368C287.628 20.368 287.191 20.4853 286.807 20.72C286.434 20.9547 286.108 21.2853 285.831 21.712L284.487 20.496C284.679 20.24 284.887 20 285.111 19.776C285.346 19.5413 285.612 19.344 285.911 19.184C286.21 19.0133 286.546 18.88 286.919 18.784C287.292 18.688 287.714 18.64 288.183 18.64C288.748 18.64 289.26 18.7093 289.719 18.848C290.188 18.976 290.588 19.168 290.919 19.424C291.26 19.68 291.522 19.9893 291.703 20.352C291.884 20.704 291.975 21.104 291.975 21.552C291.975 21.9147 291.916 22.24 291.799 22.528C291.692 22.816 291.538 23.0667 291.335 23.28C291.143 23.4933 290.914 23.6693 290.647 23.808C290.391 23.936 290.119 24.032 289.831 24.096V24.192C290.151 24.256 290.455 24.3573 290.743 24.496C291.031 24.6347 291.276 24.8213 291.479 25.056C291.692 25.28 291.858 25.5467 291.975 25.856C292.103 26.1653 292.167 26.5173 292.167 26.912C292.167 27.4027 292.066 27.8507 291.863 28.256C291.671 28.6613 291.394 29.008 291.031 29.296C290.668 29.584 290.236 29.808 289.735 29.968C289.234 30.1173 288.674 30.192 288.055 30.192C287.511 30.192 287.031 30.1333 286.615 30.016C286.199 29.9093 285.831 29.76 285.511 29.568C285.202 29.376 284.93 29.1573 284.695 28.912C284.46 28.656 284.258 28.3893 284.087 28.112L285.639 26.928C285.767 27.152 285.906 27.36 286.055 27.552C286.204 27.7333 286.375 27.8933 286.567 28.032C286.759 28.1707 286.978 28.2773 287.223 28.352C287.468 28.4267 287.746 28.464 288.055 28.464C288.674 28.464 289.148 28.3147 289.479 28.016C289.81 27.7173 289.975 27.3067 289.975 26.784V26.672C289.975 26.16 289.794 25.7707 289.431 25.504C289.079 25.2373 288.567 25.104 287.895 25.104H286.791V23.344H287.895Z" fill="white"/>
  <circle cx="396.5" cy="24" r="16" fill="#24268E"/>
  <path d="M397.271 30V27.84H392.215V26.048L396.663 18.832H399.271V26.208H400.727V27.84H399.271V30H397.271ZM393.943 26.208H397.271V20.88H397.143L393.943 26.208Z" fill="white"/>
  <circle cx="504.5" cy="24" r="16" fill="#00E4CA"/>
  <path d="M508.374 19.8879H502.722L502.434 24.0999H502.56C502.692 23.8359 502.836 23.5899 502.992 23.3619C503.148 23.1339 503.328 22.9419 503.532 22.7859C503.736 22.6299 503.97 22.5099 504.234 22.4259C504.51 22.3299 504.84 22.2819 505.224 22.2819C505.764 22.2819 506.268 22.3719 506.736 22.5519C507.204 22.7319 507.606 22.9959 507.942 23.3439C508.29 23.6799 508.56 24.0939 508.752 24.5859C508.956 25.0779 509.058 25.6359 509.058 26.2599C509.058 26.8959 508.956 27.4779 508.752 28.0059C508.548 28.5339 508.248 28.9959 507.852 29.3919C507.456 29.7759 506.97 30.0759 506.394 30.2919C505.818 30.5079 505.158 30.6159 504.414 30.6159C503.838 30.6159 503.322 30.5499 502.866 30.4179C502.41 30.2979 502.008 30.1299 501.66 29.9139C501.312 29.6979 501.012 29.4519 500.76 29.1759C500.508 28.8879 500.286 28.5879 500.094 28.2759L501.822 26.9439C501.966 27.1839 502.116 27.4119 502.272 27.6279C502.428 27.8319 502.608 28.0119 502.812 28.1679C503.028 28.3239 503.262 28.4499 503.514 28.5459C503.778 28.6299 504.084 28.6719 504.432 28.6719C505.14 28.6719 505.674 28.4739 506.034 28.0779C506.406 27.6819 506.592 27.1419 506.592 26.4579V26.3139C506.592 25.6659 506.406 25.1559 506.034 24.7839C505.662 24.4119 505.146 24.2259 504.486 24.2259C503.97 24.2259 503.55 24.3279 503.226 24.5319C502.902 24.7239 502.644 24.9339 502.452 25.1619L500.508 24.8919L500.976 17.8359H508.374V19.8879Z" fill="white"/>
  <circle cx="612.5" cy="24" r="15.5" fill="#F6F6FD" stroke="#4649D0"/>
  <path d="M612.558 30.6159C611.838 30.6159 611.196 30.5019 610.632 30.2739C610.068 30.0339 609.588 29.7039 609.192 29.2839C608.796 28.8519 608.496 28.3359 608.292 27.7359C608.088 27.1239 607.986 26.4399 607.986 25.6839C607.986 24.7839 608.118 23.9379 608.382 23.1459C608.658 22.3419 609.012 21.6099 609.444 20.9499C609.876 20.2779 610.356 19.6839 610.884 19.1679C611.424 18.6399 611.958 18.1959 612.486 17.8359H615.69C614.946 18.3639 614.28 18.8739 613.692 19.3659C613.116 19.8579 612.606 20.3559 612.162 20.8599C611.73 21.3639 611.37 21.8919 611.082 22.4439C610.806 22.9839 610.596 23.5719 610.452 24.2079L610.596 24.2439C610.716 24.0039 610.854 23.7759 611.01 23.5599C611.178 23.3319 611.376 23.1339 611.604 22.9659C611.832 22.7859 612.096 22.6479 612.396 22.5519C612.696 22.4439 613.044 22.3899 613.44 22.3899C613.956 22.3899 614.436 22.4799 614.88 22.6599C615.336 22.8399 615.726 23.1039 616.05 23.4519C616.386 23.7879 616.644 24.1959 616.824 24.6759C617.016 25.1559 617.112 25.6899 617.112 26.2779C617.112 26.9139 617.004 27.4959 616.788 28.0239C616.572 28.5519 616.266 29.0079 615.87 29.3919C615.474 29.7759 614.994 30.0759 614.43 30.2919C613.878 30.5079 613.254 30.6159 612.558 30.6159ZM612.558 28.7439C613.218 28.7439 613.734 28.5639 614.106 28.2039C614.49 27.8319 614.682 27.3039 614.682 26.6199V26.3499C614.682 25.6659 614.49 25.1439 614.106 24.7839C613.734 24.4119 613.218 24.2259 612.558 24.2259C611.886 24.2259 611.364 24.4119 610.992 24.7839C610.62 25.1439 610.434 25.6659 610.434 26.3499V26.6199C610.434 27.3039 610.62 27.8319 610.992 28.2039C611.364 28.5639 611.886 28.7439 612.558 28.7439Z" fill="#4649D0"/>
  <circle cx="720.5" cy="24" r="15.5" fill="#F6F6FD" stroke="#4649D0"/>
  <path d="M718.146 30.3999L722.52 19.7619H718.182V22.0659H716.166V17.8359H724.878V19.8699L720.63 30.3999H718.146Z" fill="#4649D0"/>
  </svg>
