<svg width="793" height="183" viewBox="0 0 793 183" fill="none" xmlns="http://www.w3.org/2000/svg">
  <rect width="793" height="182" transform="translate(0 0.404785)" fill="#F6F6FD"/>
  <line x1="73.5" y1="87.9048" x2="180.5" y2="87.9048" stroke="#4649D0" stroke-width="3" stroke-linecap="round" stroke-dasharray="0.5 12"/>
  <line x1="179.5" y1="87.9048" x2="286.5" y2="87.9048" stroke="#4649D0" stroke-width="3" stroke-linecap="round" stroke-dasharray="0.5 12"/>
  <line x1="277.5" y1="87.9048" x2="384.5" y2="87.9048" stroke="#4649D0" stroke-width="3" stroke-linecap="round" stroke-dasharray="0.5 12"/>
  <line x1="397.5" y1="87.9048" x2="504.5" y2="87.9048" stroke="#4649D0" stroke-width="3" stroke-linecap="round" stroke-dasharray="0.5 12"/>
  <line x1="505.5" y1="87.9048" x2="612.5" y2="87.9048" stroke="#4649D0" stroke-width="3" stroke-linecap="round" stroke-dasharray="0.5 12"/>
  <line x1="613.5" y1="87.9048" x2="720.5" y2="87.9048" stroke="#4649D0" stroke-width="3" stroke-linecap="round" stroke-dasharray="0.5 12"/>
  <path d="M21.98 47.6448C20.78 47.6448 19.76 47.4315 18.92 47.0048C18.0933 46.5781 17.38 46.0181 16.78 45.3248L18.56 43.6048C19.04 44.1648 19.5733 44.5915 20.16 44.8848C20.76 45.1781 21.42 45.3248 22.14 45.3248C22.9533 45.3248 23.5667 45.1515 23.98 44.8048C24.3933 44.4448 24.6 43.9648 24.6 43.3648C24.6 42.8981 24.4667 42.5181 24.2 42.2248C23.9333 41.9315 23.4333 41.7181 22.7 41.5848L21.38 41.3848C18.5933 40.9448 17.2 39.5915 17.2 37.3248C17.2 36.6981 17.3133 36.1315 17.54 35.6248C17.78 35.1181 18.12 34.6848 18.56 34.3248C19 33.9648 19.5267 33.6915 20.14 33.5048C20.7667 33.3048 21.4733 33.2048 22.26 33.2048C23.3133 33.2048 24.2333 33.3781 25.02 33.7248C25.8067 34.0715 26.48 34.5848 27.04 35.2648L25.24 36.9648C24.8933 36.5381 24.4733 36.1915 23.98 35.9248C23.4867 35.6581 22.8667 35.5248 22.12 35.5248C21.36 35.5248 20.7867 35.6715 20.4 35.9648C20.0267 36.2448 19.84 36.6448 19.84 37.1648C19.84 37.6981 19.9933 38.0915 20.3 38.3448C20.6067 38.5981 21.1 38.7848 21.78 38.9048L23.08 39.1448C24.4933 39.3981 25.5333 39.8515 26.2 40.5048C26.88 41.1448 27.22 42.0448 27.22 43.2048C27.22 43.8715 27.1 44.4781 26.86 45.0248C26.6333 45.5581 26.2933 46.0248 25.84 46.4248C25.4 46.8115 24.8533 47.1115 24.2 47.3248C23.56 47.5381 22.82 47.6448 21.98 47.6448ZM32.8884 47.4048C32.0084 47.4048 31.3351 47.1781 30.8684 46.7248C30.4151 46.2581 30.1884 45.5981 30.1884 44.7448V39.0048H28.6484V36.9648H29.4484C29.8351 36.9648 30.0951 36.8781 30.2284 36.7048C30.3751 36.5181 30.4484 36.2448 30.4484 35.8848V34.1048H32.7484V36.9648H34.8884V39.0048H32.7484V45.3648H34.7284V47.4048H32.8884ZM44.7889 47.4048C44.2289 47.4048 43.7822 47.2448 43.4489 46.9248C43.1289 46.5915 42.9289 46.1515 42.8489 45.6048H42.7289C42.5556 46.2848 42.2022 46.7981 41.6689 47.1448C41.1356 47.4781 40.4756 47.6448 39.6889 47.6448C38.6222 47.6448 37.8022 47.3648 37.2289 46.8048C36.6556 46.2448 36.3689 45.4981 36.3689 44.5648C36.3689 43.4848 36.7556 42.6848 37.5289 42.1648C38.3022 41.6315 39.4022 41.3648 40.8289 41.3648H42.6089V40.6048C42.6089 40.0181 42.4556 39.5648 42.1489 39.2448C41.8422 38.9248 41.3489 38.7648 40.6689 38.7648C40.0689 38.7648 39.5822 38.8981 39.2089 39.1648C38.8489 39.4181 38.5422 39.7248 38.2889 40.0848L36.7689 38.7248C37.1556 38.1248 37.6689 37.6448 38.3089 37.2848C38.9489 36.9115 39.7956 36.7248 40.8489 36.7248C42.2622 36.7248 43.3356 37.0448 44.0689 37.6848C44.8022 38.3248 45.1689 39.2448 45.1689 40.4448V45.3648H46.2089V47.4048H44.7889ZM40.5489 45.7848C41.1222 45.7848 41.6089 45.6581 42.0089 45.4048C42.4089 45.1515 42.6089 44.7781 42.6089 44.2848V42.9048H40.9689C39.6356 42.9048 38.9689 43.3315 38.9689 44.1848V44.5248C38.9689 44.9515 39.1022 45.2715 39.3689 45.4848C39.6489 45.6848 40.0422 45.7848 40.5489 45.7848ZM56.0208 33.4248L54.5408 34.3848C55.4608 35.3448 56.2008 36.4515 56.7608 37.7048C57.3208 38.9581 57.6008 40.3515 57.6008 41.8848C57.6008 42.8715 57.4808 43.7315 57.2408 44.4648C57.0008 45.1848 56.6608 45.7848 56.2208 46.2648C55.7941 46.7315 55.2808 47.0781 54.6808 47.3048C54.0808 47.5315 53.4141 47.6448 52.6808 47.6448C51.8941 47.6448 51.1874 47.5248 50.5608 47.2848C49.9474 47.0315 49.4208 46.6781 48.9808 46.2248C48.5541 45.7715 48.2274 45.2181 48.0008 44.5648C47.7741 43.9115 47.6608 43.1848 47.6608 42.3848C47.6608 41.6381 47.7541 40.9581 47.9408 40.3448C48.1408 39.7315 48.4208 39.2048 48.7808 38.7648C49.1408 38.3248 49.5741 37.9848 50.0808 37.7448C50.6008 37.5048 51.1741 37.3848 51.8008 37.3848C52.5208 37.3848 53.1208 37.5648 53.6008 37.9248C54.0941 38.2715 54.4808 38.7448 54.7608 39.3448L54.8808 39.2848C54.7208 38.6048 54.4341 37.9581 54.0208 37.3448C53.6208 36.7315 53.1341 36.1448 52.5608 35.5848L50.8408 36.6648L49.9208 35.5648L51.4808 34.6248C51.0141 34.2381 50.5208 33.8781 50.0008 33.5448C49.4941 33.2115 48.9808 32.8981 48.4608 32.6048H52.3608C52.5474 32.7115 52.7274 32.8381 52.9008 32.9848C53.0741 33.1181 53.2541 33.2581 53.4408 33.4048L55.1208 32.3448L56.0208 33.4248ZM52.6408 45.6848C53.3474 45.6848 53.9074 45.4581 54.3208 45.0048C54.7341 44.5515 54.9408 43.9181 54.9408 43.1048V41.9448C54.9408 41.1315 54.7341 40.4981 54.3208 40.0448C53.9074 39.5915 53.3474 39.3648 52.6408 39.3648C51.9208 39.3648 51.3541 39.5915 50.9408 40.0448C50.5274 40.4981 50.3208 41.1315 50.3208 41.9448V43.1048C50.3208 43.9181 50.5274 44.5515 50.9408 45.0048C51.3541 45.4581 51.9208 45.6848 52.6408 45.6848ZM67.7381 47.4048C67.1781 47.4048 66.7315 47.2448 66.3981 46.9248C66.0781 46.5915 65.8781 46.1515 65.7981 45.6048H65.6781C65.5048 46.2848 65.1515 46.7981 64.6181 47.1448C64.0848 47.4781 63.4248 47.6448 62.6381 47.6448C61.5715 47.6448 60.7515 47.3648 60.1781 46.8048C59.6048 46.2448 59.3181 45.4981 59.3181 44.5648C59.3181 43.4848 59.7048 42.6848 60.4781 42.1648C61.2515 41.6315 62.3515 41.3648 63.7781 41.3648H65.5581V40.6048C65.5581 40.0181 65.4048 39.5648 65.0981 39.2448C64.7915 38.9248 64.2981 38.7648 63.6181 38.7648C63.0181 38.7648 62.5315 38.8981 62.1581 39.1648C61.7981 39.4181 61.4915 39.7248 61.2381 40.0848L59.7181 38.7248C60.1048 38.1248 60.6181 37.6448 61.2581 37.2848C61.8981 36.9115 62.7448 36.7248 63.7981 36.7248C65.2115 36.7248 66.2848 37.0448 67.0181 37.6848C67.7515 38.3248 68.1181 39.2448 68.1181 40.4448V45.3648H69.1581V47.4048H67.7381ZM63.4981 45.7848C64.0715 45.7848 64.5581 45.6581 64.9581 45.4048C65.3581 45.1515 65.5581 44.7781 65.5581 44.2848V42.9048H63.9181C62.5848 42.9048 61.9181 43.3315 61.9181 44.1848V44.5248C61.9181 44.9515 62.0515 45.2715 62.3181 45.4848C62.5981 45.6848 62.9915 45.7848 63.4981 45.7848ZM75.9566 47.4048V36.9648H78.5166V38.7048H78.6166C78.8166 38.1581 79.1366 37.6915 79.5766 37.3048C80.0166 36.9181 80.6299 36.7248 81.4166 36.7248C82.1366 36.7248 82.7566 36.8981 83.2766 37.2448C83.7966 37.5915 84.1832 38.1181 84.4366 38.8248H84.4766C84.6632 38.2381 85.0299 37.7448 85.5766 37.3448C86.1366 36.9315 86.8366 36.7248 87.6766 36.7248C88.7032 36.7248 89.4899 37.0781 90.0366 37.7848C90.5966 38.4915 90.8766 39.4981 90.8766 40.8048V47.4048H88.3166V41.0648C88.3166 39.5715 87.7566 38.8248 86.6366 38.8248C86.3832 38.8248 86.1366 38.8648 85.8966 38.9448C85.6699 39.0115 85.4632 39.1181 85.2766 39.2648C85.1032 39.3981 84.9632 39.5715 84.8566 39.7848C84.7499 39.9848 84.6966 40.2248 84.6966 40.5048V47.4048H82.1366V41.0648C82.1366 39.5715 81.5766 38.8248 80.4566 38.8248C80.2166 38.8248 79.9766 38.8648 79.7366 38.9448C79.5099 39.0115 79.3032 39.1181 79.1166 39.2648C78.9432 39.3981 78.7966 39.5715 78.6766 39.7848C78.5699 39.9848 78.5166 40.2248 78.5166 40.5048V47.4048H75.9566ZM101.39 47.4048C100.83 47.4048 100.384 47.2448 100.05 46.9248C99.7305 46.5915 99.5305 46.1515 99.4505 45.6048H99.3305C99.1571 46.2848 98.8038 46.7981 98.2705 47.1448C97.7371 47.4781 97.0771 47.6448 96.2905 47.6448C95.2238 47.6448 94.4038 47.3648 93.8305 46.8048C93.2571 46.2448 92.9705 45.4981 92.9705 44.5648C92.9705 43.4848 93.3571 42.6848 94.1305 42.1648C94.9038 41.6315 96.0038 41.3648 97.4305 41.3648H99.2105V40.6048C99.2105 40.0181 99.0571 39.5648 98.7505 39.2448C98.4438 38.9248 97.9505 38.7648 97.2705 38.7648C96.6705 38.7648 96.1838 38.8981 95.8105 39.1648C95.4505 39.4181 95.1438 39.7248 94.8905 40.0848L93.3705 38.7248C93.7571 38.1248 94.2705 37.6448 94.9105 37.2848C95.5505 36.9115 96.3971 36.7248 97.4505 36.7248C98.8638 36.7248 99.9371 37.0448 100.67 37.6848C101.404 38.3248 101.77 39.2448 101.77 40.4448V45.3648H102.81V47.4048H101.39ZM97.1505 45.7848C97.7238 45.7848 98.2105 45.6581 98.6105 45.4048C99.0105 45.1515 99.2105 44.7781 99.2105 44.2848V42.9048H97.5705C96.2371 42.9048 95.5705 43.3315 95.5705 44.1848V44.5248C95.5705 44.9515 95.7038 45.2715 95.9705 45.4848C96.2505 45.6848 96.6438 45.7848 97.1505 45.7848ZM97.7705 35.7848L96.2305 35.0448L98.1305 31.3048L100.29 32.3648L97.7705 35.7848ZM107.442 47.4048C106.562 47.4048 105.916 47.1848 105.502 46.7448C105.089 46.3048 104.882 45.6848 104.882 44.8848V32.6048H107.442V45.3648H108.822V47.4048H107.442ZM114.181 47.6448C113.181 47.6448 112.341 47.4781 111.661 47.1448C110.981 46.7981 110.381 46.3248 109.861 45.7248L111.421 44.2048C111.808 44.6448 112.228 44.9915 112.681 45.2448C113.148 45.4981 113.681 45.6248 114.281 45.6248C114.895 45.6248 115.335 45.5181 115.601 45.3048C115.881 45.0915 116.021 44.7981 116.021 44.4248C116.021 44.1181 115.921 43.8781 115.721 43.7048C115.535 43.5181 115.208 43.3915 114.741 43.3248L113.701 43.1848C112.568 43.0381 111.701 42.7181 111.101 42.2248C110.515 41.7181 110.221 40.9848 110.221 40.0248C110.221 39.5181 110.315 39.0648 110.501 38.6648C110.688 38.2515 110.955 37.9048 111.301 37.6248C111.648 37.3315 112.061 37.1115 112.541 36.9648C113.035 36.8048 113.581 36.7248 114.181 36.7248C114.688 36.7248 115.135 36.7648 115.521 36.8448C115.921 36.9115 116.281 37.0181 116.601 37.1648C116.921 37.2981 117.215 37.4715 117.481 37.6848C117.748 37.8848 118.008 38.1115 118.261 38.3648L116.761 39.8648C116.455 39.5448 116.088 39.2781 115.661 39.0648C115.235 38.8515 114.768 38.7448 114.261 38.7448C113.701 38.7448 113.295 38.8448 113.041 39.0448C112.801 39.2448 112.681 39.5048 112.681 39.8248C112.681 40.1715 112.781 40.4381 112.981 40.6248C113.195 40.7981 113.548 40.9248 114.041 41.0048L115.101 41.1448C117.355 41.4648 118.481 42.4915 118.481 44.2248C118.481 44.7315 118.375 45.1981 118.161 45.6248C117.961 46.0381 117.675 46.3981 117.301 46.7048C116.928 46.9981 116.475 47.2315 115.941 47.4048C115.421 47.5648 114.835 47.6448 114.181 47.6448ZM122.022 35.4448C121.488 35.4448 121.102 35.3248 120.862 35.0848C120.635 34.8448 120.522 34.5381 120.522 34.1648V33.7648C120.522 33.3915 120.635 33.0848 120.862 32.8448C121.102 32.6048 121.488 32.4848 122.022 32.4848C122.542 32.4848 122.922 32.6048 123.162 32.8448C123.402 33.0848 123.522 33.3915 123.522 33.7648V34.1648C123.522 34.5381 123.402 34.8448 123.162 35.0848C122.922 35.3248 122.542 35.4448 122.022 35.4448ZM120.742 36.9648H123.302V47.4048H120.742V36.9648ZM126.269 47.4048V36.9648H128.829V38.7048H128.929C129.142 38.1448 129.476 37.6781 129.929 37.3048C130.396 36.9181 131.036 36.7248 131.849 36.7248C132.929 36.7248 133.756 37.0781 134.329 37.7848C134.902 38.4915 135.189 39.4981 135.189 40.8048V47.4048H132.629V41.0648C132.629 40.3181 132.496 39.7581 132.229 39.3848C131.962 39.0115 131.522 38.8248 130.909 38.8248C130.642 38.8248 130.382 38.8648 130.129 38.9448C129.889 39.0115 129.669 39.1181 129.469 39.2648C129.282 39.3981 129.129 39.5715 129.009 39.7848C128.889 39.9848 128.829 40.2248 128.829 40.5048V47.4048H126.269ZM141.447 47.6448C140.447 47.6448 139.607 47.4781 138.927 47.1448C138.247 46.7981 137.647 46.3248 137.127 45.7248L138.687 44.2048C139.074 44.6448 139.494 44.9915 139.947 45.2448C140.414 45.4981 140.947 45.6248 141.547 45.6248C142.16 45.6248 142.6 45.5181 142.867 45.3048C143.147 45.0915 143.287 44.7981 143.287 44.4248C143.287 44.1181 143.187 43.8781 142.987 43.7048C142.8 43.5181 142.474 43.3915 142.007 43.3248L140.967 43.1848C139.834 43.0381 138.967 42.7181 138.367 42.2248C137.78 41.7181 137.487 40.9848 137.487 40.0248C137.487 39.5181 137.58 39.0648 137.767 38.6648C137.954 38.2515 138.22 37.9048 138.567 37.6248C138.914 37.3315 139.327 37.1115 139.807 36.9648C140.3 36.8048 140.847 36.7248 141.447 36.7248C141.954 36.7248 142.4 36.7648 142.787 36.8448C143.187 36.9115 143.547 37.0181 143.867 37.1648C144.187 37.2981 144.48 37.4715 144.747 37.6848C145.014 37.8848 145.274 38.1115 145.527 38.3648L144.027 39.8648C143.72 39.5448 143.354 39.2781 142.927 39.0648C142.5 38.8515 142.034 38.7448 141.527 38.7448C140.967 38.7448 140.56 38.8448 140.307 39.0448C140.067 39.2448 139.947 39.5048 139.947 39.8248C139.947 40.1715 140.047 40.4381 140.247 40.6248C140.46 40.7981 140.814 40.9248 141.307 41.0048L142.367 41.1448C144.62 41.4648 145.747 42.4915 145.747 44.2248C145.747 44.7315 145.64 45.1981 145.427 45.6248C145.227 46.0381 144.94 46.3981 144.567 46.7048C144.194 46.9981 143.74 47.2315 143.207 47.4048C142.687 47.5648 142.1 47.6448 141.447 47.6448Z" fill="#4649D0"/>
  <circle cx="72.5" cy="86.4048" r="16" fill="#24268E"/>
  <path d="M69.1591 92.4048V90.6928H72.2311V82.7568H72.0871L69.6551 85.6368L68.3431 84.5328L71.1111 81.2368H74.2951V90.6928H76.8551V92.4048H69.1591Z" fill="white"/>
  <path d="M22.546 127.573C21.7527 127.573 21.076 127.423 20.516 127.125C19.956 126.817 19.48 126.397 19.088 125.865L19.956 125.137C20.3013 125.594 20.684 125.944 21.104 126.187C21.524 126.42 22.0187 126.537 22.588 126.537C23.288 126.537 23.82 126.369 24.184 126.033C24.5573 125.697 24.744 125.249 24.744 124.689C24.744 124.222 24.604 123.863 24.324 123.611C24.044 123.359 23.582 123.158 22.938 123.009L22.14 122.827C21.244 122.621 20.558 122.313 20.082 121.903C19.6153 121.483 19.382 120.895 19.382 120.139C19.382 119.709 19.4613 119.327 19.62 118.991C19.7787 118.655 19.998 118.375 20.278 118.151C20.5673 117.927 20.908 117.759 21.3 117.647C21.7013 117.525 22.14 117.465 22.616 117.465C23.3533 117.465 23.9833 117.6 24.506 117.871C25.038 118.141 25.486 118.538 25.85 119.061L24.968 119.705C24.6973 119.331 24.3707 119.037 23.988 118.823C23.6053 118.608 23.1293 118.501 22.56 118.501C21.9347 118.501 21.44 118.636 21.076 118.907C20.7213 119.168 20.544 119.565 20.544 120.097C20.544 120.563 20.6933 120.918 20.992 121.161C21.3 121.394 21.762 121.581 22.378 121.721L23.176 121.903C24.1373 122.117 24.8327 122.444 25.262 122.883C25.6913 123.321 25.906 123.905 25.906 124.633C25.906 125.081 25.8267 125.487 25.668 125.851C25.5187 126.215 25.2993 126.523 25.01 126.775C24.7207 127.027 24.366 127.223 23.946 127.363C23.5353 127.503 23.0687 127.573 22.546 127.573ZM29.4208 127.405C29.0288 127.405 28.7301 127.297 28.5248 127.083C28.3288 126.859 28.2308 126.569 28.2308 126.215V121.161H27.0408V120.181H27.7128C27.9554 120.181 28.1188 120.134 28.2028 120.041C28.2961 119.938 28.3428 119.765 28.3428 119.523V118.179H29.3508V120.181H30.9328V121.161H29.3508V126.425H30.8208V127.405H29.4208ZM32.733 120.181H33.853V128.525C33.853 129.029 33.727 129.435 33.475 129.743C33.223 130.051 32.8263 130.205 32.285 130.205H31.557V129.225H32.733V120.181ZM33.293 118.487C33.0503 118.487 32.873 118.431 32.761 118.319C32.6583 118.197 32.607 118.043 32.607 117.857V117.675C32.607 117.488 32.6583 117.339 32.761 117.227C32.873 117.105 33.0503 117.045 33.293 117.045C33.5356 117.045 33.7083 117.105 33.811 117.227C33.923 117.339 33.979 117.488 33.979 117.675V117.857C33.979 118.043 33.923 118.197 33.811 118.319C33.7083 118.431 33.5356 118.487 33.293 118.487ZM38.963 127.573C38.4776 127.573 38.0343 127.484 37.633 127.307C37.2316 127.129 36.8863 126.877 36.597 126.551C36.317 126.215 36.0976 125.818 35.939 125.361C35.7803 124.894 35.701 124.371 35.701 123.793C35.701 123.223 35.7803 122.705 35.939 122.239C36.0976 121.772 36.317 121.375 36.597 121.049C36.8863 120.713 37.2316 120.456 37.633 120.279C38.0343 120.101 38.4776 120.013 38.963 120.013C39.4483 120.013 39.887 120.101 40.279 120.279C40.6803 120.456 41.0256 120.713 41.315 121.049C41.6043 121.375 41.8283 121.772 41.987 122.239C42.1456 122.705 42.225 123.223 42.225 123.793C42.225 124.371 42.1456 124.894 41.987 125.361C41.8283 125.818 41.6043 126.215 41.315 126.551C41.0256 126.877 40.6803 127.129 40.279 127.307C39.887 127.484 39.4483 127.573 38.963 127.573ZM38.963 126.579C39.5696 126.579 40.0643 126.392 40.447 126.019C40.8296 125.645 41.021 125.076 41.021 124.311V123.275C41.021 122.509 40.8296 121.94 40.447 121.567C40.0643 121.193 39.5696 121.007 38.963 121.007C38.3563 121.007 37.8616 121.193 37.479 121.567C37.0963 121.94 36.905 122.509 36.905 123.275V124.311C36.905 125.076 37.0963 125.645 37.479 126.019C37.8616 126.392 38.3563 126.579 38.963 126.579ZM39.075 119.215L38.347 118.879L39.537 116.499L40.559 116.989L39.075 119.215ZM44.067 127.405V120.181H45.187V121.511H45.257C45.3876 121.165 45.621 120.857 45.957 120.587C46.293 120.316 46.755 120.181 47.343 120.181H47.777V121.301H47.119C46.5123 121.301 46.0363 121.417 45.691 121.651C45.355 121.875 45.187 122.159 45.187 122.505V127.405H44.067ZM49.2076 127.405V120.181H50.3276V121.357H50.3836C50.5609 120.946 50.8082 120.619 51.1256 120.377C51.4522 120.134 51.8862 120.013 52.4276 120.013C53.1742 120.013 53.7622 120.255 54.1916 120.741C54.6302 121.217 54.8496 121.893 54.8496 122.771V127.405H53.7296V122.967C53.7296 121.669 53.1836 121.021 52.0916 121.021C51.8676 121.021 51.6482 121.049 51.4336 121.105C51.2282 121.161 51.0416 121.245 50.8736 121.357C50.7056 121.469 50.5702 121.613 50.4676 121.791C50.3742 121.959 50.3276 122.159 50.3276 122.393V127.405H49.2076ZM62.4146 127.405C61.9946 127.405 61.6913 127.293 61.5046 127.069C61.3273 126.845 61.2153 126.565 61.1686 126.229H61.0986C60.9399 126.677 60.6786 127.013 60.3146 127.237C59.9506 127.461 59.5166 127.573 59.0126 127.573C58.2473 127.573 57.6499 127.377 57.2206 126.985C56.8006 126.593 56.5906 126.061 56.5906 125.389C56.5906 124.707 56.8379 124.185 57.3326 123.821C57.8366 123.457 58.6159 123.275 59.6706 123.275H61.0986V122.561C61.0986 122.047 60.9586 121.655 60.6786 121.385C60.3986 121.114 59.9693 120.979 59.3906 120.979C58.9519 120.979 58.5833 121.077 58.2846 121.273C57.9953 121.469 57.7526 121.73 57.5566 122.057L56.8846 121.427C57.0806 121.035 57.3933 120.703 57.8226 120.433C58.2519 120.153 58.7933 120.013 59.4466 120.013C60.3239 120.013 61.0053 120.227 61.4906 120.657C61.9759 121.086 62.2186 121.683 62.2186 122.449V126.425H63.0446V127.405H62.4146ZM59.1946 126.621C59.4746 126.621 59.7313 126.588 59.9646 126.523C60.1979 126.457 60.3986 126.364 60.5666 126.243C60.7346 126.121 60.8653 125.981 60.9586 125.823C61.0519 125.664 61.0986 125.491 61.0986 125.305V124.115H59.6146C58.9706 124.115 58.4993 124.208 58.2006 124.395C57.9113 124.581 57.7666 124.852 57.7666 125.207V125.501C57.7666 125.855 57.8926 126.131 58.1446 126.327C58.4059 126.523 58.7559 126.621 59.1946 126.621ZM64.6431 127.405V120.181H65.7631V121.511H65.8331C65.9638 121.165 66.1971 120.857 66.5331 120.587C66.8691 120.316 67.3311 120.181 67.9191 120.181H68.3531V121.301H67.6951C67.0885 121.301 66.6125 121.417 66.2671 121.651C65.9311 121.875 65.7631 122.159 65.7631 122.505V127.405H64.6431ZM70.2304 121.161H69.0544V120.181H70.2304V118.725C70.2304 118.221 70.3611 117.815 70.6224 117.507C70.8838 117.199 71.2804 117.045 71.8124 117.045H72.9044V118.025H71.3504V120.181H72.9044V121.161H71.3504V127.405H70.2304V121.161ZM74.3775 127.405V120.181H75.4975V121.511H75.5675C75.6982 121.165 75.9315 120.857 76.2675 120.587C76.6035 120.316 77.0655 120.181 77.6535 120.181H78.0875V121.301H77.4295C76.8228 121.301 76.3468 121.417 76.0015 121.651C75.6655 121.875 75.4975 122.159 75.4975 122.505V127.405H74.3775ZM83.9701 126.229H83.9141C83.8395 126.397 83.7461 126.565 83.6341 126.733C83.5315 126.891 83.4008 127.036 83.2421 127.167C83.0835 127.288 82.8921 127.386 82.6681 127.461C82.4441 127.535 82.1828 127.573 81.8841 127.573C81.1375 127.573 80.5448 127.335 80.1061 126.859C79.6675 126.373 79.4481 125.692 79.4481 124.815V120.181H80.5681V124.619C80.5681 125.916 81.1188 126.565 82.2201 126.565C82.4441 126.565 82.6588 126.537 82.8641 126.481C83.0788 126.425 83.2655 126.341 83.4241 126.229C83.5921 126.117 83.7228 125.977 83.8161 125.809C83.9188 125.631 83.9701 125.421 83.9701 125.179V120.181H85.0901V127.405H83.9701V126.229ZM87.4752 127.405V120.181H88.5952V121.357H88.6512C88.7352 121.17 88.8285 120.997 88.9312 120.839C89.0432 120.671 89.1738 120.526 89.3232 120.405C89.4818 120.283 89.6638 120.19 89.8692 120.125C90.0745 120.05 90.3172 120.013 90.5972 120.013C91.0732 120.013 91.5118 120.129 91.9132 120.363C92.3145 120.587 92.6132 120.96 92.8092 121.483H92.8372C92.9678 121.091 93.2105 120.75 93.5652 120.461C93.9292 120.162 94.4192 120.013 95.0352 120.013C95.7725 120.013 96.3465 120.255 96.7572 120.741C97.1772 121.217 97.3872 121.893 97.3872 122.771V127.405H96.2672V122.967C96.2672 122.323 96.1412 121.837 95.8892 121.511C95.6372 121.184 95.2358 121.021 94.6852 121.021C94.4612 121.021 94.2465 121.049 94.0412 121.105C93.8452 121.161 93.6678 121.245 93.5092 121.357C93.3505 121.469 93.2245 121.613 93.1312 121.791C93.0378 121.959 92.9912 122.159 92.9912 122.393V127.405H91.8712V122.967C91.8712 122.323 91.7452 121.837 91.4932 121.511C91.2412 121.184 90.8492 121.021 90.3172 121.021C90.0932 121.021 89.8785 121.049 89.6732 121.105C89.4678 121.161 89.2858 121.245 89.1272 121.357C88.9685 121.469 88.8378 121.613 88.7352 121.791C88.6418 121.959 88.5952 122.159 88.5952 122.393V127.405H87.4752ZM101.184 127.405L98.6504 120.181H99.7704L101.03 123.765L101.814 126.229H101.884L102.668 123.765L103.956 120.181H105.034L102.486 127.405H101.184ZM111.606 127.405C111.186 127.405 110.883 127.293 110.696 127.069C110.519 126.845 110.407 126.565 110.36 126.229H110.29C110.131 126.677 109.87 127.013 109.506 127.237C109.142 127.461 108.708 127.573 108.204 127.573C107.439 127.573 106.841 127.377 106.412 126.985C105.992 126.593 105.782 126.061 105.782 125.389C105.782 124.707 106.029 124.185 106.524 123.821C107.028 123.457 107.807 123.275 108.862 123.275H110.29V122.561C110.29 122.047 110.15 121.655 109.87 121.385C109.59 121.114 109.161 120.979 108.582 120.979C108.143 120.979 107.775 121.077 107.476 121.273C107.187 121.469 106.944 121.73 106.748 122.057L106.076 121.427C106.272 121.035 106.585 120.703 107.014 120.433C107.443 120.153 107.985 120.013 108.638 120.013C109.515 120.013 110.197 120.227 110.682 120.657C111.167 121.086 111.41 121.683 111.41 122.449V126.425H112.236V127.405H111.606ZM108.386 126.621C108.666 126.621 108.923 126.588 109.156 126.523C109.389 126.457 109.59 126.364 109.758 126.243C109.926 126.121 110.057 125.981 110.15 125.823C110.243 125.664 110.29 125.491 110.29 125.305V124.115H108.806C108.162 124.115 107.691 124.208 107.392 124.395C107.103 124.581 106.958 124.852 106.958 125.207V125.501C106.958 125.855 107.084 126.131 107.336 126.327C107.597 126.523 107.947 126.621 108.386 126.621ZM113.835 127.405V120.181H114.955V121.511H115.025C115.155 121.165 115.389 120.857 115.725 120.587C116.061 120.316 116.523 120.181 117.111 120.181H117.545V121.301H116.887C116.28 121.301 115.804 121.417 115.459 121.651C115.123 121.875 114.955 122.159 114.955 122.505V127.405H113.835ZM118.975 120.181H120.095V121.357H120.151C120.338 120.899 120.608 120.563 120.963 120.349C121.327 120.125 121.761 120.013 122.265 120.013C122.713 120.013 123.119 120.101 123.483 120.279C123.847 120.456 124.155 120.708 124.407 121.035C124.668 121.361 124.864 121.758 124.995 122.225C125.135 122.691 125.205 123.214 125.205 123.793C125.205 124.371 125.135 124.894 124.995 125.361C124.864 125.827 124.668 126.224 124.407 126.551C124.155 126.877 123.847 127.129 123.483 127.307C123.119 127.484 122.713 127.573 122.265 127.573C121.285 127.573 120.58 127.125 120.151 126.229H120.095V130.205H118.975V120.181ZM121.957 126.565C122.592 126.565 123.091 126.369 123.455 125.977C123.819 125.575 124.001 125.053 124.001 124.409V123.177C124.001 122.533 123.819 122.015 123.455 121.623C123.091 121.221 122.592 121.021 121.957 121.021C121.705 121.021 121.462 121.058 121.229 121.133C121.005 121.198 120.809 121.291 120.641 121.413C120.473 121.534 120.338 121.683 120.235 121.861C120.142 122.029 120.095 122.211 120.095 122.407V125.095C120.095 125.328 120.142 125.538 120.235 125.725C120.338 125.902 120.473 126.056 120.641 126.187C120.809 126.308 121.005 126.401 121.229 126.467C121.462 126.532 121.705 126.565 121.957 126.565Z" fill="#00003C"/>
  <circle cx="180.5" cy="86.4048" r="16" fill="#24268E"/>
  <path d="M184.439 92.4048H176.695V90.4528L180.199 87.3808C180.796 86.8581 181.234 86.3888 181.511 85.9728C181.788 85.5461 181.927 85.0875 181.927 84.5968V84.3888C181.927 83.8981 181.767 83.5248 181.447 83.2688C181.127 83.0021 180.738 82.8688 180.279 82.8688C179.703 82.8688 179.266 83.0341 178.967 83.3648C178.668 83.6848 178.455 84.0741 178.327 84.5328L176.503 83.8288C176.62 83.4555 176.786 83.1035 176.999 82.7728C177.212 82.4315 177.479 82.1328 177.799 81.8768C178.13 81.6208 178.514 81.4181 178.951 81.2688C179.388 81.1195 179.89 81.0448 180.455 81.0448C181.042 81.0448 181.564 81.1301 182.023 81.3008C182.482 81.4608 182.866 81.6901 183.175 81.9888C183.495 82.2875 183.735 82.6395 183.895 83.0448C184.066 83.4501 184.151 83.8928 184.151 84.3728C184.151 84.8421 184.076 85.2688 183.927 85.6528C183.778 86.0368 183.575 86.4048 183.319 86.7568C183.063 87.0981 182.764 87.4288 182.423 87.7488C182.082 88.0581 181.719 88.3728 181.335 88.6928L178.983 90.6288H184.439V92.4048Z" fill="white"/>
  <path d="M147.232 127.405V126.369H149.962V118.501H149.864L147.4 120.797L146.714 120.055L149.304 117.633H151.138V126.369H153.658V127.405H147.232ZM156.299 127.573C156 127.573 155.781 127.498 155.641 127.349C155.51 127.199 155.445 127.003 155.445 126.761V126.579C155.445 126.336 155.51 126.14 155.641 125.991C155.781 125.841 156 125.767 156.299 125.767C156.597 125.767 156.812 125.841 156.943 125.991C157.083 126.14 157.153 126.336 157.153 126.579V126.761C157.153 127.003 157.083 127.199 156.943 127.349C156.812 127.498 156.597 127.573 156.299 127.573ZM167.16 126.229H167.104C167.029 126.397 166.936 126.565 166.824 126.733C166.721 126.891 166.59 127.036 166.432 127.167C166.273 127.288 166.082 127.386 165.858 127.461C165.634 127.535 165.372 127.573 165.074 127.573C164.327 127.573 163.734 127.335 163.296 126.859C162.857 126.373 162.638 125.692 162.638 124.815V120.181H163.758V124.619C163.758 125.916 164.308 126.565 165.41 126.565C165.634 126.565 165.848 126.537 166.054 126.481C166.268 126.425 166.455 126.341 166.614 126.229C166.782 126.117 166.912 125.977 167.006 125.809C167.108 125.631 167.16 125.421 167.16 125.179V120.181H168.28V127.405H167.16V126.229ZM170.665 127.405V120.181H171.785V121.357H171.841C171.925 121.17 172.018 120.997 172.121 120.839C172.233 120.671 172.363 120.526 172.513 120.405C172.671 120.283 172.853 120.19 173.059 120.125C173.264 120.05 173.507 120.013 173.787 120.013C174.263 120.013 174.701 120.129 175.103 120.363C175.504 120.587 175.803 120.96 175.999 121.483H176.027C176.157 121.091 176.4 120.75 176.755 120.461C177.119 120.162 177.609 120.013 178.225 120.013C178.962 120.013 179.536 120.255 179.947 120.741C180.367 121.217 180.577 121.893 180.577 122.771V127.405H179.457V122.967C179.457 122.323 179.331 121.837 179.079 121.511C178.827 121.184 178.425 121.021 177.875 121.021C177.651 121.021 177.436 121.049 177.231 121.105C177.035 121.161 176.857 121.245 176.699 121.357C176.54 121.469 176.414 121.613 176.321 121.791C176.227 121.959 176.181 122.159 176.181 122.393V127.405H175.061V122.967C175.061 122.323 174.935 121.837 174.683 121.511C174.431 121.184 174.039 121.021 173.507 121.021C173.283 121.021 173.068 121.049 172.863 121.105C172.657 121.161 172.475 121.245 172.317 121.357C172.158 121.469 172.027 121.613 171.925 121.791C171.831 121.959 171.785 122.159 171.785 122.393V127.405H170.665ZM182.887 127.405V120.181H184.007V121.511H184.077C184.208 121.165 184.441 120.857 184.777 120.587C185.113 120.316 185.575 120.181 186.163 120.181H186.597V121.301H185.939C185.333 121.301 184.857 121.417 184.511 121.651C184.175 121.875 184.007 122.159 184.007 122.505V127.405H182.887ZM190.423 124.073C189.779 124.091 189.308 124.199 189.009 124.395C188.72 124.581 188.575 124.852 188.575 125.207V125.501C188.575 125.855 188.701 126.131 188.953 126.327C189.215 126.523 189.569 126.621 190.017 126.621C190.288 126.621 190.535 126.588 190.759 126.523C190.993 126.457 191.193 126.364 191.361 126.243C191.529 126.121 191.66 125.981 191.753 125.823C191.856 125.664 191.907 125.491 191.907 125.305V124.073H190.423ZM197.017 123.233V123.079C197.017 122.435 196.84 121.921 196.485 121.539C196.14 121.147 195.678 120.951 195.099 120.951C194.791 120.951 194.511 121.007 194.259 121.119C194.007 121.221 193.788 121.371 193.601 121.567C193.424 121.763 193.284 121.996 193.181 122.267C193.079 122.528 193.027 122.817 193.027 123.135V123.233H197.017ZM195.169 126.593C196.093 126.593 196.756 126.182 197.157 125.361L197.955 125.921C197.722 126.425 197.363 126.826 196.877 127.125C196.401 127.423 195.851 127.573 195.225 127.573C194.843 127.573 194.493 127.517 194.175 127.405C193.867 127.302 193.597 127.171 193.363 127.013C193.139 126.845 192.957 126.667 192.817 126.481C192.677 126.285 192.589 126.107 192.551 125.949H192.467C192.439 126.107 192.355 126.28 192.215 126.467C192.085 126.653 191.907 126.831 191.683 126.999C191.459 127.157 191.189 127.293 190.871 127.405C190.554 127.517 190.195 127.573 189.793 127.573C189.065 127.573 188.482 127.381 188.043 126.999C187.614 126.607 187.399 126.079 187.399 125.417C187.399 124.717 187.656 124.18 188.169 123.807C188.683 123.424 189.453 123.233 190.479 123.233H191.907V122.561C191.907 122.047 191.767 121.655 191.487 121.385C191.207 121.114 190.792 120.979 190.241 120.979C189.775 120.979 189.397 121.072 189.107 121.259C188.818 121.445 188.571 121.707 188.365 122.043L187.693 121.427C187.88 121.044 188.188 120.713 188.617 120.433C189.056 120.153 189.607 120.013 190.269 120.013C190.68 120.013 191.021 120.073 191.291 120.195C191.571 120.307 191.795 120.447 191.963 120.615C192.141 120.773 192.271 120.946 192.355 121.133C192.439 121.319 192.5 121.483 192.537 121.623H192.621C192.659 121.464 192.747 121.291 192.887 121.105C193.027 120.918 193.209 120.745 193.433 120.587C193.657 120.419 193.919 120.283 194.217 120.181C194.525 120.069 194.861 120.013 195.225 120.013C195.683 120.013 196.093 120.101 196.457 120.279C196.831 120.456 197.148 120.703 197.409 121.021C197.671 121.329 197.871 121.697 198.011 122.127C198.151 122.556 198.221 123.027 198.221 123.541V124.073H193.027V124.409C193.027 124.717 193.074 125.006 193.167 125.277C193.27 125.538 193.41 125.767 193.587 125.963C193.774 126.159 193.998 126.313 194.259 126.425C194.53 126.537 194.833 126.593 195.169 126.593ZM204.735 117.437L203.643 118.221C203.932 118.51 204.217 118.837 204.497 119.201C204.777 119.565 205.024 119.971 205.239 120.419C205.453 120.867 205.626 121.357 205.757 121.889C205.887 122.421 205.953 122.995 205.953 123.611C205.953 124.264 205.873 124.838 205.715 125.333C205.556 125.827 205.332 126.243 205.043 126.579C204.763 126.905 204.427 127.153 204.035 127.321C203.643 127.489 203.213 127.573 202.747 127.573C202.252 127.573 201.804 127.484 201.403 127.307C201.011 127.129 200.675 126.882 200.395 126.565C200.124 126.247 199.914 125.869 199.765 125.431C199.615 124.983 199.541 124.493 199.541 123.961C199.541 123.429 199.615 122.943 199.765 122.505C199.914 122.057 200.124 121.674 200.395 121.357C200.675 121.039 201.011 120.792 201.403 120.615C201.804 120.437 202.252 120.349 202.747 120.349C203.204 120.349 203.587 120.47 203.895 120.713C204.203 120.955 204.427 121.291 204.567 121.721L204.623 121.693C204.52 121.161 204.305 120.652 203.979 120.167C203.661 119.672 203.279 119.215 202.831 118.795L201.725 119.579L201.291 119.005L202.271 118.305C201.972 118.062 201.669 117.838 201.361 117.633C201.053 117.427 200.745 117.231 200.437 117.045H202.159C202.299 117.129 202.448 117.227 202.607 117.339C202.765 117.451 202.924 117.577 203.083 117.717L204.273 116.863L204.735 117.437ZM202.747 126.607C203.353 126.607 203.839 126.411 204.203 126.019C204.567 125.627 204.749 125.095 204.749 124.423V123.499C204.749 122.827 204.567 122.295 204.203 121.903C203.839 121.511 203.353 121.315 202.747 121.315C202.14 121.315 201.655 121.511 201.291 121.903C200.927 122.295 200.745 122.827 200.745 123.499V124.423C200.745 125.095 200.927 125.627 201.291 126.019C201.655 126.411 202.14 126.607 202.747 126.607ZM213.088 127.405C212.668 127.405 212.365 127.293 212.178 127.069C212.001 126.845 211.889 126.565 211.842 126.229H211.772C211.614 126.677 211.352 127.013 210.988 127.237C210.624 127.461 210.19 127.573 209.686 127.573C208.921 127.573 208.324 127.377 207.894 126.985C207.474 126.593 207.264 126.061 207.264 125.389C207.264 124.707 207.512 124.185 208.006 123.821C208.51 123.457 209.29 123.275 210.344 123.275H211.772V122.561C211.772 122.047 211.632 121.655 211.352 121.385C211.072 121.114 210.643 120.979 210.064 120.979C209.626 120.979 209.257 121.077 208.958 121.273C208.669 121.469 208.426 121.73 208.23 122.057L207.558 121.427C207.754 121.035 208.067 120.703 208.496 120.433C208.926 120.153 209.467 120.013 210.12 120.013C210.998 120.013 211.679 120.227 212.164 120.657C212.65 121.086 212.892 121.683 212.892 122.449V126.425H213.718V127.405H213.088ZM209.868 126.621C210.148 126.621 210.405 126.588 210.638 126.523C210.872 126.457 211.072 126.364 211.24 126.243C211.408 126.121 211.539 125.981 211.632 125.823C211.726 125.664 211.772 125.491 211.772 125.305V124.115H210.288C209.644 124.115 209.173 124.208 208.874 124.395C208.585 124.581 208.44 124.852 208.44 125.207V125.501C208.44 125.855 208.566 126.131 208.818 126.327C209.08 126.523 209.43 126.621 209.868 126.621Z" fill="#00003C"/>
  <circle cx="288.5" cy="86.4048" r="16" fill="#24268E"/>
  <path d="M287.895 85.7488C288.535 85.7488 289.004 85.6208 289.303 85.3648C289.612 85.0981 289.767 84.7621 289.767 84.3568V84.2448C289.767 83.7861 289.618 83.4288 289.319 83.1728C289.031 82.9061 288.631 82.7728 288.119 82.7728C287.628 82.7728 287.191 82.8901 286.807 83.1248C286.434 83.3595 286.108 83.6901 285.831 84.1168L284.487 82.9008C284.679 82.6448 284.887 82.4048 285.111 82.1808C285.346 81.9461 285.612 81.7488 285.911 81.5888C286.21 81.4181 286.546 81.2848 286.919 81.1888C287.292 81.0928 287.714 81.0448 288.183 81.0448C288.748 81.0448 289.26 81.1141 289.719 81.2528C290.188 81.3808 290.588 81.5728 290.919 81.8288C291.26 82.0848 291.522 82.3941 291.703 82.7568C291.884 83.1088 291.975 83.5088 291.975 83.9568C291.975 84.3195 291.916 84.6448 291.799 84.9328C291.692 85.2208 291.538 85.4715 291.335 85.6848C291.143 85.8981 290.914 86.0741 290.647 86.2128C290.391 86.3408 290.119 86.4368 289.831 86.5008V86.5968C290.151 86.6608 290.455 86.7621 290.743 86.9008C291.031 87.0395 291.276 87.2261 291.479 87.4608C291.692 87.6848 291.858 87.9515 291.975 88.2608C292.103 88.5701 292.167 88.9221 292.167 89.3168C292.167 89.8075 292.066 90.2555 291.863 90.6608C291.671 91.0661 291.394 91.4128 291.031 91.7008C290.668 91.9888 290.236 92.2128 289.735 92.3728C289.234 92.5221 288.674 92.5968 288.055 92.5968C287.511 92.5968 287.031 92.5381 286.615 92.4208C286.199 92.3141 285.831 92.1648 285.511 91.9728C285.202 91.7808 284.93 91.5621 284.695 91.3168C284.46 91.0608 284.258 90.7941 284.087 90.5168L285.639 89.3328C285.767 89.5568 285.906 89.7648 286.055 89.9568C286.204 90.1381 286.375 90.2981 286.567 90.4368C286.759 90.5755 286.978 90.6821 287.223 90.7568C287.468 90.8315 287.746 90.8688 288.055 90.8688C288.674 90.8688 289.148 90.7195 289.479 90.4208C289.81 90.1221 289.975 89.7115 289.975 89.1888V89.0768C289.975 88.5648 289.794 88.1755 289.431 87.9088C289.079 87.6421 288.567 87.5088 287.895 87.5088H286.791V85.7488H287.895Z" fill="white"/>
  <path d="M256.668 121.441L255.492 119.271H255.45V127.405H254.302V117.633H255.66L259.23 123.597L260.406 125.767H260.448V117.633H261.596V127.405H260.238L256.668 121.441ZM266.804 127.573C266.31 127.573 265.862 127.484 265.46 127.307C265.068 127.129 264.728 126.877 264.438 126.551C264.158 126.215 263.939 125.818 263.78 125.361C263.631 124.894 263.556 124.371 263.556 123.793C263.556 123.223 263.631 122.705 263.78 122.239C263.939 121.772 264.158 121.375 264.438 121.049C264.728 120.713 265.068 120.456 265.46 120.279C265.862 120.101 266.31 120.013 266.804 120.013C267.29 120.013 267.724 120.101 268.106 120.279C268.489 120.456 268.816 120.703 269.086 121.021C269.357 121.329 269.562 121.697 269.702 122.127C269.852 122.556 269.926 123.027 269.926 123.541V124.073H264.732V124.409C264.732 124.717 264.779 125.006 264.872 125.277C264.975 125.538 265.115 125.767 265.292 125.963C265.479 126.159 265.703 126.313 265.964 126.425C266.235 126.537 266.538 126.593 266.874 126.593C267.332 126.593 267.728 126.485 268.064 126.271C268.41 126.056 268.676 125.748 268.862 125.347L269.66 125.921C269.427 126.415 269.063 126.817 268.568 127.125C268.074 127.423 267.486 127.573 266.804 127.573ZM266.804 120.951C266.496 120.951 266.216 121.007 265.964 121.119C265.712 121.221 265.493 121.371 265.306 121.567C265.129 121.763 264.989 121.996 264.886 122.267C264.784 122.528 264.732 122.817 264.732 123.135V123.233H268.722V123.079C268.722 122.435 268.545 121.921 268.19 121.539C267.845 121.147 267.383 120.951 266.804 120.951ZM272.164 121.161H270.988V120.181H272.164V118.725C272.164 118.221 272.295 117.815 272.556 117.507C272.817 117.199 273.214 117.045 273.746 117.045H274.838V118.025H273.284V120.181H274.838V121.161H273.284V127.405H272.164V121.161ZM276.311 127.405V120.181H277.431V121.357H277.487C277.664 120.946 277.912 120.619 278.229 120.377C278.556 120.134 278.99 120.013 279.531 120.013C280.278 120.013 280.866 120.255 281.295 120.741C281.734 121.217 281.953 121.893 281.953 122.771V127.405H280.833V122.967C280.833 121.669 280.287 121.021 279.195 121.021C278.971 121.021 278.752 121.049 278.537 121.105C278.332 121.161 278.145 121.245 277.977 121.357C277.809 121.469 277.674 121.613 277.571 121.791C277.478 121.959 277.431 122.159 277.431 122.393V127.405H276.311ZM288.888 126.229H288.832C288.393 127.125 287.689 127.573 286.718 127.573C286.27 127.573 285.864 127.484 285.5 127.307C285.136 127.129 284.823 126.877 284.562 126.551C284.31 126.224 284.114 125.827 283.974 125.361C283.843 124.894 283.778 124.371 283.778 123.793C283.778 123.214 283.843 122.691 283.974 122.225C284.114 121.758 284.31 121.361 284.562 121.035C284.823 120.708 285.136 120.456 285.5 120.279C285.864 120.101 286.27 120.013 286.718 120.013C287.222 120.013 287.651 120.125 288.006 120.349C288.37 120.563 288.645 120.899 288.832 121.357H288.888V117.045H290.008V127.405H288.888V126.229ZM287.026 126.565C287.278 126.565 287.516 126.532 287.74 126.467C287.973 126.401 288.174 126.308 288.342 126.187C288.51 126.056 288.641 125.902 288.734 125.725C288.837 125.538 288.888 125.328 288.888 125.095V122.407C288.888 122.211 288.837 122.029 288.734 121.861C288.641 121.683 288.51 121.534 288.342 121.413C288.174 121.291 287.973 121.198 287.74 121.133C287.516 121.058 287.278 121.021 287.026 121.021C286.391 121.021 285.892 121.221 285.528 121.623C285.164 122.015 284.982 122.533 284.982 123.177V124.409C284.982 125.053 285.164 125.575 285.528 125.977C285.892 126.369 286.391 126.565 287.026 126.565ZM297.639 127.405C297.219 127.405 296.916 127.293 296.729 127.069C296.552 126.845 296.44 126.565 296.393 126.229H296.323C296.165 126.677 295.903 127.013 295.539 127.237C295.175 127.461 294.741 127.573 294.237 127.573C293.472 127.573 292.875 127.377 292.445 126.985C292.025 126.593 291.815 126.061 291.815 125.389C291.815 124.707 292.063 124.185 292.557 123.821C293.061 123.457 293.841 123.275 294.895 123.275H296.323V122.561C296.323 122.047 296.183 121.655 295.903 121.385C295.623 121.114 295.194 120.979 294.615 120.979C294.177 120.979 293.808 121.077 293.509 121.273C293.22 121.469 292.977 121.73 292.781 122.057L292.109 121.427C292.305 121.035 292.618 120.703 293.047 120.433C293.477 120.153 294.018 120.013 294.671 120.013C295.549 120.013 296.23 120.227 296.715 120.657C297.201 121.086 297.443 121.683 297.443 122.449V126.425H298.269V127.405H297.639ZM294.419 126.621C294.699 126.621 294.956 126.588 295.189 126.523C295.423 126.457 295.623 126.364 295.791 126.243C295.959 126.121 296.09 125.981 296.183 125.823C296.277 125.664 296.323 125.491 296.323 125.305V124.115H294.839C294.195 124.115 293.724 124.208 293.425 124.395C293.136 124.581 292.991 124.852 292.991 125.207V125.501C292.991 125.855 293.117 126.131 293.369 126.327C293.631 126.523 293.981 126.621 294.419 126.621ZM299.868 127.405V120.181H300.988V121.511H301.058C301.188 121.165 301.422 120.857 301.758 120.587C302.094 120.316 302.556 120.181 303.144 120.181H303.578V121.301H302.92C302.313 121.301 301.837 121.417 301.492 121.651C301.156 121.875 300.988 122.159 300.988 122.505V127.405H299.868ZM310.204 127.405C309.784 127.405 309.48 127.293 309.294 127.069C309.116 126.845 309.004 126.565 308.958 126.229H308.888C308.729 126.677 308.468 127.013 308.104 127.237C307.74 127.461 307.306 127.573 306.802 127.573C306.036 127.573 305.439 127.377 305.01 126.985C304.59 126.593 304.38 126.061 304.38 125.389C304.38 124.707 304.627 124.185 305.122 123.821C305.626 123.457 306.405 123.275 307.46 123.275H308.888V122.561C308.888 122.047 308.748 121.655 308.468 121.385C308.188 121.114 307.758 120.979 307.18 120.979C306.741 120.979 306.372 121.077 306.074 121.273C305.784 121.469 305.542 121.73 305.346 122.057L304.674 121.427C304.87 121.035 305.182 120.703 305.612 120.433C306.041 120.153 306.582 120.013 307.236 120.013C308.113 120.013 308.794 120.227 309.28 120.657C309.765 121.086 310.008 121.683 310.008 122.449V126.425H310.834V127.405H310.204ZM306.984 126.621C307.264 126.621 307.52 126.588 307.754 126.523C307.987 126.457 308.188 126.364 308.356 126.243C308.524 126.121 308.654 125.981 308.748 125.823C308.841 125.664 308.888 125.491 308.888 125.305V124.115H307.404C306.76 124.115 306.288 124.208 305.99 124.395C305.7 124.581 305.556 124.852 305.556 125.207V125.501C305.556 125.855 305.682 126.131 305.934 126.327C306.195 126.523 306.545 126.621 306.984 126.621ZM307.404 119.215L306.676 118.879L307.866 116.499L308.888 116.989L307.404 119.215ZM313.622 127.405C313.23 127.405 312.932 127.297 312.726 127.083C312.53 126.859 312.432 126.579 312.432 126.243V117.045H313.552V126.425H314.616V127.405H313.622ZM316.807 118.487C316.564 118.487 316.387 118.431 316.275 118.319C316.172 118.197 316.121 118.043 316.121 117.857V117.675C316.121 117.488 316.172 117.339 316.275 117.227C316.387 117.105 316.564 117.045 316.807 117.045C317.049 117.045 317.222 117.105 317.325 117.227C317.437 117.339 317.493 117.488 317.493 117.675V117.857C317.493 118.043 317.437 118.197 317.325 118.319C317.222 118.431 317.049 118.487 316.807 118.487ZM316.247 120.181H317.367V127.405H316.247V120.181ZM321.343 127.405C320.951 127.405 320.652 127.297 320.447 127.083C320.251 126.859 320.153 126.569 320.153 126.215V121.161H318.963V120.181H319.635C319.877 120.181 320.041 120.134 320.125 120.041C320.218 119.938 320.265 119.765 320.265 119.523V118.179H321.273V120.181H322.855V121.161H321.273V126.425H322.743V127.405H321.343Z" fill="#00003C"/>
  <circle cx="396.5" cy="86.4048" r="16" fill="#24268E"/>
  <path d="M397.271 92.4048V90.2448H392.215V88.4528L396.663 81.2368H399.271V88.6128H400.727V90.2448H399.271V92.4048H397.271ZM393.943 88.6128H397.271V83.2848H397.143L393.943 88.6128Z" fill="white"/>
  <path d="M369.462 127.405H363.05V126.201L366.242 123.261C366.699 122.841 367.082 122.397 367.39 121.931C367.698 121.455 367.852 120.979 367.852 120.503V120.335C367.852 119.793 367.703 119.355 367.404 119.019C367.105 118.683 366.653 118.515 366.046 118.515C365.747 118.515 365.486 118.557 365.262 118.641C365.038 118.725 364.842 118.841 364.674 118.991C364.515 119.14 364.38 119.317 364.268 119.523C364.165 119.719 364.081 119.933 364.016 120.167L362.966 119.761C363.059 119.471 363.185 119.191 363.344 118.921C363.512 118.641 363.717 118.393 363.96 118.179C364.212 117.964 364.511 117.791 364.856 117.661C365.211 117.53 365.626 117.465 366.102 117.465C366.578 117.465 367.003 117.535 367.376 117.675C367.749 117.815 368.062 118.011 368.314 118.263C368.566 118.515 368.757 118.813 368.888 119.159C369.028 119.504 369.098 119.887 369.098 120.307C369.098 120.689 369.042 121.044 368.93 121.371C368.827 121.697 368.683 122.01 368.496 122.309C368.309 122.598 368.081 122.883 367.81 123.163C367.549 123.443 367.264 123.723 366.956 124.003L364.324 126.369H369.462V127.405ZM372.299 127.573C372 127.573 371.781 127.498 371.641 127.349C371.51 127.199 371.445 127.003 371.445 126.761V126.579C371.445 126.336 371.51 126.14 371.641 125.991C371.781 125.841 372 125.767 372.299 125.767C372.597 125.767 372.812 125.841 372.943 125.991C373.083 126.14 373.153 126.336 373.153 126.579V126.761C373.153 127.003 373.083 127.199 372.943 127.349C372.812 127.498 372.597 127.573 372.299 127.573ZM383.16 126.229H383.104C383.029 126.397 382.936 126.565 382.824 126.733C382.721 126.891 382.59 127.036 382.432 127.167C382.273 127.288 382.082 127.386 381.858 127.461C381.634 127.535 381.372 127.573 381.074 127.573C380.327 127.573 379.734 127.335 379.296 126.859C378.857 126.373 378.638 125.692 378.638 124.815V120.181H379.758V124.619C379.758 125.916 380.308 126.565 381.41 126.565C381.634 126.565 381.848 126.537 382.054 126.481C382.268 126.425 382.455 126.341 382.614 126.229C382.782 126.117 382.912 125.977 383.006 125.809C383.108 125.631 383.16 125.421 383.16 125.179V120.181H384.28V127.405H383.16V126.229ZM386.665 127.405V120.181H387.785V121.357H387.841C387.925 121.17 388.018 120.997 388.121 120.839C388.233 120.671 388.363 120.526 388.513 120.405C388.671 120.283 388.853 120.19 389.059 120.125C389.264 120.05 389.507 120.013 389.787 120.013C390.263 120.013 390.701 120.129 391.103 120.363C391.504 120.587 391.803 120.96 391.999 121.483H392.027C392.157 121.091 392.4 120.75 392.755 120.461C393.119 120.162 393.609 120.013 394.225 120.013C394.962 120.013 395.536 120.255 395.947 120.741C396.367 121.217 396.577 121.893 396.577 122.771V127.405H395.457V122.967C395.457 122.323 395.331 121.837 395.079 121.511C394.827 121.184 394.425 121.021 393.875 121.021C393.651 121.021 393.436 121.049 393.231 121.105C393.035 121.161 392.857 121.245 392.699 121.357C392.54 121.469 392.414 121.613 392.321 121.791C392.227 121.959 392.181 122.159 392.181 122.393V127.405H391.061V122.967C391.061 122.323 390.935 121.837 390.683 121.511C390.431 121.184 390.039 121.021 389.507 121.021C389.283 121.021 389.068 121.049 388.863 121.105C388.657 121.161 388.475 121.245 388.317 121.357C388.158 121.469 388.027 121.613 387.925 121.791C387.831 121.959 387.785 122.159 387.785 122.393V127.405H386.665ZM398.887 127.405V120.181H400.007V121.511H400.077C400.208 121.165 400.441 120.857 400.777 120.587C401.113 120.316 401.575 120.181 402.163 120.181H402.597V121.301H401.939C401.333 121.301 400.857 121.417 400.511 121.651C400.175 121.875 400.007 122.159 400.007 122.505V127.405H398.887ZM406.423 124.073C405.779 124.091 405.308 124.199 405.009 124.395C404.72 124.581 404.575 124.852 404.575 125.207V125.501C404.575 125.855 404.701 126.131 404.953 126.327C405.215 126.523 405.569 126.621 406.017 126.621C406.288 126.621 406.535 126.588 406.759 126.523C406.993 126.457 407.193 126.364 407.361 126.243C407.529 126.121 407.66 125.981 407.753 125.823C407.856 125.664 407.907 125.491 407.907 125.305V124.073H406.423ZM413.017 123.233V123.079C413.017 122.435 412.84 121.921 412.485 121.539C412.14 121.147 411.678 120.951 411.099 120.951C410.791 120.951 410.511 121.007 410.259 121.119C410.007 121.221 409.788 121.371 409.601 121.567C409.424 121.763 409.284 121.996 409.181 122.267C409.079 122.528 409.027 122.817 409.027 123.135V123.233H413.017ZM411.169 126.593C412.093 126.593 412.756 126.182 413.157 125.361L413.955 125.921C413.722 126.425 413.363 126.826 412.877 127.125C412.401 127.423 411.851 127.573 411.225 127.573C410.843 127.573 410.493 127.517 410.175 127.405C409.867 127.302 409.597 127.171 409.363 127.013C409.139 126.845 408.957 126.667 408.817 126.481C408.677 126.285 408.589 126.107 408.551 125.949H408.467C408.439 126.107 408.355 126.28 408.215 126.467C408.085 126.653 407.907 126.831 407.683 126.999C407.459 127.157 407.189 127.293 406.871 127.405C406.554 127.517 406.195 127.573 405.793 127.573C405.065 127.573 404.482 127.381 404.043 126.999C403.614 126.607 403.399 126.079 403.399 125.417C403.399 124.717 403.656 124.18 404.169 123.807C404.683 123.424 405.453 123.233 406.479 123.233H407.907V122.561C407.907 122.047 407.767 121.655 407.487 121.385C407.207 121.114 406.792 120.979 406.241 120.979C405.775 120.979 405.397 121.072 405.107 121.259C404.818 121.445 404.571 121.707 404.365 122.043L403.693 121.427C403.88 121.044 404.188 120.713 404.617 120.433C405.056 120.153 405.607 120.013 406.269 120.013C406.68 120.013 407.021 120.073 407.291 120.195C407.571 120.307 407.795 120.447 407.963 120.615C408.141 120.773 408.271 120.946 408.355 121.133C408.439 121.319 408.5 121.483 408.537 121.623H408.621C408.659 121.464 408.747 121.291 408.887 121.105C409.027 120.918 409.209 120.745 409.433 120.587C409.657 120.419 409.919 120.283 410.217 120.181C410.525 120.069 410.861 120.013 411.225 120.013C411.683 120.013 412.093 120.101 412.457 120.279C412.831 120.456 413.148 120.703 413.409 121.021C413.671 121.329 413.871 121.697 414.011 122.127C414.151 122.556 414.221 123.027 414.221 123.541V124.073H409.027V124.409C409.027 124.717 409.074 125.006 409.167 125.277C409.27 125.538 409.41 125.767 409.587 125.963C409.774 126.159 409.998 126.313 410.259 126.425C410.53 126.537 410.833 126.593 411.169 126.593ZM420.735 117.437L419.643 118.221C419.932 118.51 420.217 118.837 420.497 119.201C420.777 119.565 421.024 119.971 421.239 120.419C421.453 120.867 421.626 121.357 421.757 121.889C421.887 122.421 421.953 122.995 421.953 123.611C421.953 124.264 421.873 124.838 421.715 125.333C421.556 125.827 421.332 126.243 421.043 126.579C420.763 126.905 420.427 127.153 420.035 127.321C419.643 127.489 419.213 127.573 418.747 127.573C418.252 127.573 417.804 127.484 417.403 127.307C417.011 127.129 416.675 126.882 416.395 126.565C416.124 126.247 415.914 125.869 415.765 125.431C415.615 124.983 415.541 124.493 415.541 123.961C415.541 123.429 415.615 122.943 415.765 122.505C415.914 122.057 416.124 121.674 416.395 121.357C416.675 121.039 417.011 120.792 417.403 120.615C417.804 120.437 418.252 120.349 418.747 120.349C419.204 120.349 419.587 120.47 419.895 120.713C420.203 120.955 420.427 121.291 420.567 121.721L420.623 121.693C420.52 121.161 420.305 120.652 419.979 120.167C419.661 119.672 419.279 119.215 418.831 118.795L417.725 119.579L417.291 119.005L418.271 118.305C417.972 118.062 417.669 117.838 417.361 117.633C417.053 117.427 416.745 117.231 416.437 117.045H418.159C418.299 117.129 418.448 117.227 418.607 117.339C418.765 117.451 418.924 117.577 419.083 117.717L420.273 116.863L420.735 117.437ZM418.747 126.607C419.353 126.607 419.839 126.411 420.203 126.019C420.567 125.627 420.749 125.095 420.749 124.423V123.499C420.749 122.827 420.567 122.295 420.203 121.903C419.839 121.511 419.353 121.315 418.747 121.315C418.14 121.315 417.655 121.511 417.291 121.903C416.927 122.295 416.745 122.827 416.745 123.499V124.423C416.745 125.095 416.927 125.627 417.291 126.019C417.655 126.411 418.14 126.607 418.747 126.607ZM429.088 127.405C428.668 127.405 428.365 127.293 428.178 127.069C428.001 126.845 427.889 126.565 427.842 126.229H427.772C427.614 126.677 427.352 127.013 426.988 127.237C426.624 127.461 426.19 127.573 425.686 127.573C424.921 127.573 424.324 127.377 423.894 126.985C423.474 126.593 423.264 126.061 423.264 125.389C423.264 124.707 423.512 124.185 424.006 123.821C424.51 123.457 425.29 123.275 426.344 123.275H427.772V122.561C427.772 122.047 427.632 121.655 427.352 121.385C427.072 121.114 426.643 120.979 426.064 120.979C425.626 120.979 425.257 121.077 424.958 121.273C424.669 121.469 424.426 121.73 424.23 122.057L423.558 121.427C423.754 121.035 424.067 120.703 424.496 120.433C424.926 120.153 425.467 120.013 426.12 120.013C426.998 120.013 427.679 120.227 428.164 120.657C428.65 121.086 428.892 121.683 428.892 122.449V126.425H429.718V127.405H429.088ZM425.868 126.621C426.148 126.621 426.405 126.588 426.638 126.523C426.872 126.457 427.072 126.364 427.24 126.243C427.408 126.121 427.539 125.981 427.632 125.823C427.726 125.664 427.772 125.491 427.772 125.305V124.115H426.288C425.644 124.115 425.173 124.208 424.874 124.395C424.585 124.581 424.44 124.852 424.44 125.207V125.501C424.44 125.855 424.566 126.131 424.818 126.327C425.08 126.523 425.43 126.621 425.868 126.621Z" fill="#00003C"/>
  <circle cx="504.5" cy="86.4048" r="16" fill="#00E4CA"/>
  <path d="M508.374 82.2927H502.722L502.434 86.5047H502.56C502.692 86.2407 502.836 85.9947 502.992 85.7667C503.148 85.5387 503.328 85.3467 503.532 85.1907C503.736 85.0347 503.97 84.9147 504.234 84.8307C504.51 84.7347 504.84 84.6867 505.224 84.6867C505.764 84.6867 506.268 84.7767 506.736 84.9567C507.204 85.1367 507.606 85.4007 507.942 85.7487C508.29 86.0847 508.56 86.4987 508.752 86.9907C508.956 87.4827 509.058 88.0407 509.058 88.6647C509.058 89.3007 508.956 89.8827 508.752 90.4107C508.548 90.9387 508.248 91.4007 507.852 91.7967C507.456 92.1807 506.97 92.4807 506.394 92.6967C505.818 92.9127 505.158 93.0207 504.414 93.0207C503.838 93.0207 503.322 92.9547 502.866 92.8227C502.41 92.7027 502.008 92.5347 501.66 92.3187C501.312 92.1027 501.012 91.8567 500.76 91.5807C500.508 91.2927 500.286 90.9927 500.094 90.6807L501.822 89.3487C501.966 89.5887 502.116 89.8167 502.272 90.0327C502.428 90.2367 502.608 90.4167 502.812 90.5727C503.028 90.7287 503.262 90.8547 503.514 90.9507C503.778 91.0347 504.084 91.0767 504.432 91.0767C505.14 91.0767 505.674 90.8787 506.034 90.4827C506.406 90.0867 506.592 89.5467 506.592 88.8627V88.7187C506.592 88.0707 506.406 87.5607 506.034 87.1887C505.662 86.8167 505.146 86.6307 504.486 86.6307C503.97 86.6307 503.55 86.7327 503.226 86.9367C502.902 87.1287 502.644 87.3387 502.452 87.5667L500.508 87.2967L500.976 80.2407H508.374V82.2927Z" fill="white"/>
  <path d="M459.475 127.405V117.633H465.299V118.669H460.651V121.945H464.893V122.981H460.651V127.405H459.475ZM466.91 127.405V120.181H468.03V121.511H468.1C468.23 121.165 468.464 120.857 468.8 120.587C469.136 120.316 469.598 120.181 470.186 120.181H470.62V121.301H469.962C469.355 121.301 468.879 121.417 468.534 121.651C468.198 121.875 468.03 122.159 468.03 122.505V127.405H466.91ZM476.502 126.229H476.446C476.372 126.397 476.278 126.565 476.166 126.733C476.064 126.891 475.933 127.036 475.774 127.167C475.616 127.288 475.424 127.386 475.2 127.461C474.976 127.535 474.715 127.573 474.416 127.573C473.67 127.573 473.077 127.335 472.638 126.859C472.2 126.373 471.98 125.692 471.98 124.815V120.181H473.1V124.619C473.1 125.916 473.651 126.565 474.752 126.565C474.976 126.565 475.191 126.537 475.396 126.481C475.611 126.425 475.798 126.341 475.956 126.229C476.124 126.117 476.255 125.977 476.348 125.809C476.451 125.631 476.502 125.421 476.502 125.179V120.181H477.622V127.405H476.502V126.229ZM480.007 127.405V120.181H481.127V121.357H481.183C481.267 121.17 481.361 120.997 481.463 120.839C481.575 120.671 481.706 120.526 481.855 120.405C482.014 120.283 482.196 120.19 482.401 120.125C482.607 120.05 482.849 120.013 483.129 120.013C483.605 120.013 484.044 120.129 484.445 120.363C484.847 120.587 485.145 120.96 485.341 121.483H485.369C485.5 121.091 485.743 120.75 486.097 120.461C486.461 120.162 486.951 120.013 487.567 120.013C488.305 120.013 488.879 120.255 489.289 120.741C489.709 121.217 489.919 121.893 489.919 122.771V127.405H488.799V122.967C488.799 122.323 488.673 121.837 488.421 121.511C488.169 121.184 487.768 121.021 487.217 121.021C486.993 121.021 486.779 121.049 486.573 121.105C486.377 121.161 486.2 121.245 486.041 121.357C485.883 121.469 485.757 121.613 485.663 121.791C485.57 121.959 485.523 122.159 485.523 122.393V127.405H484.403V122.967C484.403 122.323 484.277 121.837 484.025 121.511C483.773 121.184 483.381 121.021 482.849 121.021C482.625 121.021 482.411 121.049 482.205 121.105C482 121.161 481.818 121.245 481.659 121.357C481.501 121.469 481.37 121.613 481.267 121.791C481.174 121.959 481.127 122.159 481.127 122.393V127.405H480.007ZM493.717 127.405L491.183 120.181H492.303L493.563 123.765L494.347 126.229H494.417L495.201 123.765L496.489 120.181H497.567L495.019 127.405H493.717ZM504.138 127.405C503.718 127.405 503.415 127.293 503.228 127.069C503.051 126.845 502.939 126.565 502.892 126.229H502.822C502.664 126.677 502.402 127.013 502.038 127.237C501.674 127.461 501.24 127.573 500.736 127.573C499.971 127.573 499.374 127.377 498.944 126.985C498.524 126.593 498.314 126.061 498.314 125.389C498.314 124.707 498.562 124.185 499.056 123.821C499.56 123.457 500.34 123.275 501.394 123.275H502.822V122.561C502.822 122.047 502.682 121.655 502.402 121.385C502.122 121.114 501.693 120.979 501.114 120.979C500.676 120.979 500.307 121.077 500.008 121.273C499.719 121.469 499.476 121.73 499.28 122.057L498.608 121.427C498.804 121.035 499.117 120.703 499.546 120.433C499.976 120.153 500.517 120.013 501.17 120.013C502.048 120.013 502.729 120.227 503.214 120.657C503.7 121.086 503.942 121.683 503.942 122.449V126.425H504.768V127.405H504.138ZM500.918 126.621C501.198 126.621 501.455 126.588 501.688 126.523C501.922 126.457 502.122 126.364 502.29 126.243C502.458 126.121 502.589 125.981 502.682 125.823C502.776 125.664 502.822 125.491 502.822 125.305V124.115H501.338C500.694 124.115 500.223 124.208 499.924 124.395C499.635 124.581 499.49 124.852 499.49 125.207V125.501C499.49 125.855 499.616 126.131 499.868 126.327C500.13 126.523 500.48 126.621 500.918 126.621ZM506.367 127.405V120.181H507.487V121.511H507.557C507.687 121.165 507.921 120.857 508.257 120.587C508.593 120.316 509.055 120.181 509.643 120.181H510.077V121.301H509.419C508.812 121.301 508.336 121.417 507.991 121.651C507.655 121.875 507.487 122.159 507.487 122.505V127.405H506.367ZM511.507 120.181H512.627V121.357H512.683C512.87 120.899 513.141 120.563 513.495 120.349C513.859 120.125 514.293 120.013 514.797 120.013C515.245 120.013 515.651 120.101 516.015 120.279C516.379 120.456 516.687 120.708 516.939 121.035C517.201 121.361 517.397 121.758 517.527 122.225C517.667 122.691 517.737 123.214 517.737 123.793C517.737 124.371 517.667 124.894 517.527 125.361C517.397 125.827 517.201 126.224 516.939 126.551C516.687 126.877 516.379 127.129 516.015 127.307C515.651 127.484 515.245 127.573 514.797 127.573C513.817 127.573 513.113 127.125 512.683 126.229H512.627V130.205H511.507V120.181ZM514.489 126.565C515.124 126.565 515.623 126.369 515.987 125.977C516.351 125.575 516.533 125.053 516.533 124.409V123.177C516.533 122.533 516.351 122.015 515.987 121.623C515.623 121.221 515.124 121.021 514.489 121.021C514.237 121.021 513.995 121.058 513.761 121.133C513.537 121.198 513.341 121.291 513.173 121.413C513.005 121.534 512.87 121.683 512.767 121.861C512.674 122.029 512.627 122.211 512.627 122.407V125.095C512.627 125.328 512.674 125.538 512.767 125.725C512.87 125.902 513.005 126.056 513.173 126.187C513.341 126.308 513.537 126.401 513.761 126.467C513.995 126.532 514.237 126.565 514.489 126.565ZM525.653 127.573C525.158 127.573 524.71 127.484 524.309 127.307C523.917 127.129 523.576 126.877 523.287 126.551C523.007 126.215 522.788 125.818 522.629 125.361C522.48 124.894 522.405 124.371 522.405 123.793C522.405 123.223 522.48 122.705 522.629 122.239C522.788 121.772 523.007 121.375 523.287 121.049C523.576 120.713 523.917 120.456 524.309 120.279C524.71 120.101 525.158 120.013 525.653 120.013C526.138 120.013 526.572 120.101 526.955 120.279C527.338 120.456 527.664 120.703 527.935 121.021C528.206 121.329 528.411 121.697 528.551 122.127C528.7 122.556 528.775 123.027 528.775 123.541V124.073H523.581V124.409C523.581 124.717 523.628 125.006 523.721 125.277C523.824 125.538 523.964 125.767 524.141 125.963C524.328 126.159 524.552 126.313 524.813 126.425C525.084 126.537 525.387 126.593 525.723 126.593C526.18 126.593 526.577 126.485 526.913 126.271C527.258 126.056 527.524 125.748 527.711 125.347L528.509 125.921C528.276 126.415 527.912 126.817 527.417 127.125C526.922 127.423 526.334 127.573 525.653 127.573ZM525.653 120.951C525.345 120.951 525.065 121.007 524.813 121.119C524.561 121.221 524.342 121.371 524.155 121.567C523.978 121.763 523.838 121.996 523.735 122.267C523.632 122.528 523.581 122.817 523.581 123.135V123.233H527.571V123.079C527.571 122.435 527.394 121.921 527.039 121.539C526.694 121.147 526.232 120.951 525.653 120.951ZM531.013 121.161H529.837V120.181H531.013V118.725C531.013 118.221 531.143 117.815 531.405 117.507C531.666 117.199 532.063 117.045 532.595 117.045H533.687V118.025H532.133V120.181H533.687V121.161H532.133V127.405H531.013V121.161ZM536.756 127.405C536.364 127.405 536.065 127.297 535.86 127.083C535.664 126.859 535.566 126.569 535.566 126.215V121.161H534.376V120.181H535.048C535.29 120.181 535.454 120.134 535.538 120.041C535.631 119.938 535.678 119.765 535.678 119.523V118.179H536.686V120.181H538.268V121.161H536.686V126.425H538.156V127.405H536.756ZM540.628 118.487C540.385 118.487 540.208 118.431 540.096 118.319C539.993 118.197 539.942 118.043 539.942 117.857V117.675C539.942 117.488 539.993 117.339 540.096 117.227C540.208 117.105 540.385 117.045 540.628 117.045C540.871 117.045 541.043 117.105 541.146 117.227C541.258 117.339 541.314 117.488 541.314 117.675V117.857C541.314 118.043 541.258 118.197 541.146 118.319C541.043 118.431 540.871 118.487 540.628 118.487ZM540.068 120.181H541.188V127.405H540.068V120.181ZM543.568 127.405V120.181H544.688V121.511H544.758C544.889 121.165 545.122 120.857 545.458 120.587C545.794 120.316 546.256 120.181 546.844 120.181H547.278V121.301H546.62C546.013 121.301 545.537 121.417 545.192 121.651C544.856 121.875 544.688 122.159 544.688 122.505V127.405H543.568ZM477.659 151.405H471.247V150.201L474.439 147.261C474.897 146.841 475.279 146.397 475.587 145.931C475.895 145.455 476.049 144.979 476.049 144.503V144.335C476.049 143.793 475.9 143.355 475.601 143.019C475.303 142.683 474.85 142.515 474.243 142.515C473.945 142.515 473.683 142.557 473.459 142.641C473.235 142.725 473.039 142.841 472.871 142.991C472.713 143.14 472.577 143.317 472.465 143.523C472.363 143.719 472.279 143.933 472.213 144.167L471.163 143.761C471.257 143.471 471.383 143.191 471.541 142.921C471.709 142.641 471.915 142.393 472.157 142.179C472.409 141.964 472.708 141.791 473.053 141.661C473.408 141.53 473.823 141.465 474.299 141.465C474.775 141.465 475.2 141.535 475.573 141.675C475.947 141.815 476.259 142.011 476.511 142.263C476.763 142.515 476.955 142.813 477.085 143.159C477.225 143.504 477.295 143.887 477.295 144.307C477.295 144.689 477.239 145.044 477.127 145.371C477.025 145.697 476.88 146.01 476.693 146.309C476.507 146.598 476.278 146.883 476.007 147.163C475.746 147.443 475.461 147.723 475.153 148.003L472.521 150.369H477.659V151.405ZM480.496 151.573C480.197 151.573 479.978 151.498 479.838 151.349C479.707 151.199 479.642 151.003 479.642 150.761V150.579C479.642 150.336 479.707 150.14 479.838 149.991C479.978 149.841 480.197 149.767 480.496 149.767C480.794 149.767 481.009 149.841 481.14 149.991C481.28 150.14 481.35 150.336 481.35 150.579V150.761C481.35 151.003 481.28 151.199 481.14 151.349C481.009 151.498 480.794 151.573 480.496 151.573ZM491.357 150.229H491.301C491.226 150.397 491.133 150.565 491.021 150.733C490.918 150.891 490.788 151.036 490.629 151.167C490.47 151.288 490.279 151.386 490.055 151.461C489.831 151.535 489.57 151.573 489.271 151.573C488.524 151.573 487.932 151.335 487.493 150.859C487.054 150.373 486.835 149.692 486.835 148.815V144.181H487.955V148.619C487.955 149.916 488.506 150.565 489.607 150.565C489.831 150.565 490.046 150.537 490.251 150.481C490.466 150.425 490.652 150.341 490.811 150.229C490.979 150.117 491.11 149.977 491.203 149.809C491.306 149.631 491.357 149.421 491.357 149.179V144.181H492.477V151.405H491.357V150.229ZM494.862 151.405V144.181H495.982V145.357H496.038C496.122 145.17 496.215 144.997 496.318 144.839C496.43 144.671 496.561 144.526 496.71 144.405C496.869 144.283 497.051 144.19 497.256 144.125C497.461 144.05 497.704 144.013 497.984 144.013C498.46 144.013 498.899 144.129 499.3 144.363C499.701 144.587 500 144.96 500.196 145.483H500.224C500.355 145.091 500.597 144.75 500.952 144.461C501.316 144.162 501.806 144.013 502.422 144.013C503.159 144.013 503.733 144.255 504.144 144.741C504.564 145.217 504.774 145.893 504.774 146.771V151.405H503.654V146.967C503.654 146.323 503.528 145.837 503.276 145.511C503.024 145.184 502.623 145.021 502.072 145.021C501.848 145.021 501.633 145.049 501.428 145.105C501.232 145.161 501.055 145.245 500.896 145.357C500.737 145.469 500.611 145.613 500.518 145.791C500.425 145.959 500.378 146.159 500.378 146.393V151.405H499.258V146.967C499.258 146.323 499.132 145.837 498.88 145.511C498.628 145.184 498.236 145.021 497.704 145.021C497.48 145.021 497.265 145.049 497.06 145.105C496.855 145.161 496.673 145.245 496.514 145.357C496.355 145.469 496.225 145.613 496.122 145.791C496.029 145.959 495.982 146.159 495.982 146.393V151.405H494.862ZM507.085 151.405V144.181H508.205V145.511H508.275C508.405 145.165 508.639 144.857 508.975 144.587C509.311 144.316 509.773 144.181 510.361 144.181H510.795V145.301H510.137C509.53 145.301 509.054 145.417 508.709 145.651C508.373 145.875 508.205 146.159 508.205 146.505V151.405H507.085ZM514.62 148.073C513.976 148.091 513.505 148.199 513.206 148.395C512.917 148.581 512.772 148.852 512.772 149.207V149.501C512.772 149.855 512.898 150.131 513.15 150.327C513.412 150.523 513.766 150.621 514.214 150.621C514.485 150.621 514.732 150.588 514.956 150.523C515.19 150.457 515.39 150.364 515.558 150.243C515.726 150.121 515.857 149.981 515.95 149.823C516.053 149.664 516.104 149.491 516.104 149.305V148.073H514.62ZM521.214 147.233V147.079C521.214 146.435 521.037 145.921 520.682 145.539C520.337 145.147 519.875 144.951 519.296 144.951C518.988 144.951 518.708 145.007 518.456 145.119C518.204 145.221 517.985 145.371 517.798 145.567C517.621 145.763 517.481 145.996 517.378 146.267C517.276 146.528 517.224 146.817 517.224 147.135V147.233H521.214ZM519.366 150.593C520.29 150.593 520.953 150.182 521.354 149.361L522.152 149.921C521.919 150.425 521.56 150.826 521.074 151.125C520.598 151.423 520.048 151.573 519.422 151.573C519.04 151.573 518.69 151.517 518.372 151.405C518.064 151.302 517.794 151.171 517.56 151.013C517.336 150.845 517.154 150.667 517.014 150.481C516.874 150.285 516.786 150.107 516.748 149.949H516.664C516.636 150.107 516.552 150.28 516.412 150.467C516.282 150.653 516.104 150.831 515.88 150.999C515.656 151.157 515.386 151.293 515.068 151.405C514.751 151.517 514.392 151.573 513.99 151.573C513.262 151.573 512.679 151.381 512.24 150.999C511.811 150.607 511.596 150.079 511.596 149.417C511.596 148.717 511.853 148.18 512.366 147.807C512.88 147.424 513.65 147.233 514.676 147.233H516.104V146.561C516.104 146.047 515.964 145.655 515.684 145.385C515.404 145.114 514.989 144.979 514.438 144.979C513.972 144.979 513.594 145.072 513.304 145.259C513.015 145.445 512.768 145.707 512.562 146.043L511.89 145.427C512.077 145.044 512.385 144.713 512.814 144.433C513.253 144.153 513.804 144.013 514.466 144.013C514.877 144.013 515.218 144.073 515.488 144.195C515.768 144.307 515.992 144.447 516.16 144.615C516.338 144.773 516.468 144.946 516.552 145.133C516.636 145.319 516.697 145.483 516.734 145.623H516.818C516.856 145.464 516.944 145.291 517.084 145.105C517.224 144.918 517.406 144.745 517.63 144.587C517.854 144.419 518.116 144.283 518.414 144.181C518.722 144.069 519.058 144.013 519.422 144.013C519.88 144.013 520.29 144.101 520.654 144.279C521.028 144.456 521.345 144.703 521.606 145.021C521.868 145.329 522.068 145.697 522.208 146.127C522.348 146.556 522.418 147.027 522.418 147.541V148.073H517.224V148.409C517.224 148.717 517.271 149.006 517.364 149.277C517.467 149.538 517.607 149.767 517.784 149.963C517.971 150.159 518.195 150.313 518.456 150.425C518.727 150.537 519.03 150.593 519.366 150.593ZM528.932 141.437L527.84 142.221C528.129 142.51 528.414 142.837 528.694 143.201C528.974 143.565 529.221 143.971 529.436 144.419C529.651 144.867 529.823 145.357 529.954 145.889C530.085 146.421 530.15 146.995 530.15 147.611C530.15 148.264 530.071 148.838 529.912 149.333C529.753 149.827 529.529 150.243 529.24 150.579C528.96 150.905 528.624 151.153 528.232 151.321C527.84 151.489 527.411 151.573 526.944 151.573C526.449 151.573 526.001 151.484 525.6 151.307C525.208 151.129 524.872 150.882 524.592 150.565C524.321 150.247 524.111 149.869 523.962 149.431C523.813 148.983 523.738 148.493 523.738 147.961C523.738 147.429 523.813 146.943 523.962 146.505C524.111 146.057 524.321 145.674 524.592 145.357C524.872 145.039 525.208 144.792 525.6 144.615C526.001 144.437 526.449 144.349 526.944 144.349C527.401 144.349 527.784 144.47 528.092 144.713C528.4 144.955 528.624 145.291 528.764 145.721L528.82 145.693C528.717 145.161 528.503 144.652 528.176 144.167C527.859 143.672 527.476 143.215 527.028 142.795L525.922 143.579L525.488 143.005L526.468 142.305C526.169 142.062 525.866 141.838 525.558 141.633C525.25 141.427 524.942 141.231 524.634 141.045H526.356C526.496 141.129 526.645 141.227 526.804 141.339C526.963 141.451 527.121 141.577 527.28 141.717L528.47 140.863L528.932 141.437ZM526.944 150.607C527.551 150.607 528.036 150.411 528.4 150.019C528.764 149.627 528.946 149.095 528.946 148.423V147.499C528.946 146.827 528.764 146.295 528.4 145.903C528.036 145.511 527.551 145.315 526.944 145.315C526.337 145.315 525.852 145.511 525.488 145.903C525.124 146.295 524.942 146.827 524.942 147.499V148.423C524.942 149.095 525.124 149.627 525.488 150.019C525.852 150.411 526.337 150.607 526.944 150.607ZM536.488 150.229H536.432C536.357 150.397 536.264 150.565 536.152 150.733C536.049 150.891 535.918 151.036 535.76 151.167C535.601 151.288 535.41 151.386 535.186 151.461C534.962 151.535 534.7 151.573 534.402 151.573C533.655 151.573 533.062 151.335 532.624 150.859C532.185 150.373 531.966 149.692 531.966 148.815V144.181H533.086V148.619C533.086 149.916 533.636 150.565 534.738 150.565C534.962 150.565 535.176 150.537 535.382 150.481C535.596 150.425 535.783 150.341 535.942 150.229C536.11 150.117 536.24 149.977 536.334 149.809C536.436 149.631 536.488 149.421 536.488 149.179V144.181H537.608V151.405H536.488V150.229Z" fill="#00003C"/>
  <circle cx="612.5" cy="86.4048" r="15.5" fill="#F6F6FD" stroke="#4649D0"/>
  <path d="M612.558 93.0207C611.838 93.0207 611.196 92.9067 610.632 92.6787C610.068 92.4387 609.588 92.1087 609.192 91.6887C608.796 91.2567 608.496 90.7407 608.292 90.1407C608.088 89.5287 607.986 88.8447 607.986 88.0887C607.986 87.1887 608.118 86.3427 608.382 85.5507C608.658 84.7467 609.012 84.0147 609.444 83.3547C609.876 82.6827 610.356 82.0887 610.884 81.5727C611.424 81.0447 611.958 80.6007 612.486 80.2407H615.69C614.946 80.7687 614.28 81.2787 613.692 81.7707C613.116 82.2627 612.606 82.7607 612.162 83.2647C611.73 83.7687 611.37 84.2967 611.082 84.8487C610.806 85.3887 610.596 85.9767 610.452 86.6127L610.596 86.6487C610.716 86.4087 610.854 86.1807 611.01 85.9647C611.178 85.7367 611.376 85.5387 611.604 85.3707C611.832 85.1907 612.096 85.0527 612.396 84.9567C612.696 84.8487 613.044 84.7947 613.44 84.7947C613.956 84.7947 614.436 84.8847 614.88 85.0647C615.336 85.2447 615.726 85.5087 616.05 85.8567C616.386 86.1927 616.644 86.6007 616.824 87.0807C617.016 87.5607 617.112 88.0947 617.112 88.6827C617.112 89.3187 617.004 89.9007 616.788 90.4287C616.572 90.9567 616.266 91.4127 615.87 91.7967C615.474 92.1807 614.994 92.4807 614.43 92.6967C613.878 92.9127 613.254 93.0207 612.558 93.0207ZM612.558 91.1487C613.218 91.1487 613.734 90.9687 614.106 90.6087C614.49 90.2367 614.682 89.7087 614.682 89.0247V88.7547C614.682 88.0707 614.49 87.5487 614.106 87.1887C613.734 86.8167 613.218 86.6307 612.558 86.6307C611.886 86.6307 611.364 86.8167 610.992 87.1887C610.62 87.5487 610.434 88.0707 610.434 88.7547V89.0247C610.434 89.7087 610.62 90.2367 610.992 90.6087C611.364 90.9687 611.886 91.1487 612.558 91.1487Z" fill="#4649D0"/>
  <path d="M581.654 121.777C582.317 121.777 582.811 121.627 583.138 121.329C583.474 121.021 583.642 120.629 583.642 120.153V120.055C583.642 119.541 583.479 119.159 583.152 118.907C582.835 118.645 582.415 118.515 581.892 118.515C581.388 118.515 580.977 118.627 580.66 118.851C580.343 119.065 580.081 119.359 579.876 119.733L579.008 119.061C579.129 118.865 579.274 118.673 579.442 118.487C579.619 118.291 579.825 118.118 580.058 117.969C580.291 117.819 580.562 117.698 580.87 117.605C581.178 117.511 581.528 117.465 581.92 117.465C582.331 117.465 582.718 117.521 583.082 117.633C583.446 117.735 583.759 117.894 584.02 118.109C584.291 118.314 584.501 118.571 584.65 118.879C584.809 119.187 584.888 119.537 584.888 119.929C584.888 120.246 584.837 120.531 584.734 120.783C584.641 121.035 584.51 121.254 584.342 121.441C584.174 121.627 583.973 121.786 583.74 121.917C583.516 122.047 583.273 122.145 583.012 122.211V122.267C583.273 122.323 583.525 122.416 583.768 122.547C584.02 122.668 584.239 122.831 584.426 123.037C584.622 123.233 584.776 123.475 584.888 123.765C585.009 124.045 585.07 124.367 585.07 124.731C585.07 125.151 584.991 125.538 584.832 125.893C584.673 126.238 584.449 126.537 584.16 126.789C583.871 127.031 583.521 127.223 583.11 127.363C582.699 127.503 582.247 127.573 581.752 127.573C581.332 127.573 580.959 127.526 580.632 127.433C580.305 127.339 580.016 127.213 579.764 127.055C579.512 126.896 579.288 126.719 579.092 126.523C578.905 126.327 578.737 126.121 578.588 125.907L579.47 125.235C579.591 125.431 579.722 125.608 579.862 125.767C580.011 125.925 580.175 126.061 580.352 126.173C580.529 126.285 580.73 126.373 580.954 126.439C581.178 126.495 581.439 126.523 581.738 126.523C582.429 126.523 582.951 126.369 583.306 126.061C583.661 125.743 583.838 125.295 583.838 124.717V124.605C583.838 124.026 583.661 123.583 583.306 123.275C582.951 122.957 582.429 122.799 581.738 122.799H580.59V121.777H581.654ZM588.299 127.573C588 127.573 587.781 127.498 587.641 127.349C587.51 127.199 587.445 127.003 587.445 126.761V126.579C587.445 126.336 587.51 126.14 587.641 125.991C587.781 125.841 588 125.767 588.299 125.767C588.597 125.767 588.812 125.841 588.943 125.991C589.083 126.14 589.153 126.336 589.153 126.579V126.761C589.153 127.003 589.083 127.199 588.943 127.349C588.812 127.498 588.597 127.573 588.299 127.573ZM599.16 126.229H599.104C599.029 126.397 598.936 126.565 598.824 126.733C598.721 126.891 598.59 127.036 598.432 127.167C598.273 127.288 598.082 127.386 597.858 127.461C597.634 127.535 597.372 127.573 597.074 127.573C596.327 127.573 595.734 127.335 595.296 126.859C594.857 126.373 594.638 125.692 594.638 124.815V120.181H595.758V124.619C595.758 125.916 596.308 126.565 597.41 126.565C597.634 126.565 597.848 126.537 598.054 126.481C598.268 126.425 598.455 126.341 598.614 126.229C598.782 126.117 598.912 125.977 599.006 125.809C599.108 125.631 599.16 125.421 599.16 125.179V120.181H600.28V127.405H599.16V126.229ZM602.665 127.405V120.181H603.785V121.357H603.841C603.925 121.17 604.018 120.997 604.121 120.839C604.233 120.671 604.363 120.526 604.513 120.405C604.671 120.283 604.853 120.19 605.059 120.125C605.264 120.05 605.507 120.013 605.787 120.013C606.263 120.013 606.701 120.129 607.103 120.363C607.504 120.587 607.803 120.96 607.999 121.483H608.027C608.157 121.091 608.4 120.75 608.755 120.461C609.119 120.162 609.609 120.013 610.225 120.013C610.962 120.013 611.536 120.255 611.947 120.741C612.367 121.217 612.577 121.893 612.577 122.771V127.405H611.457V122.967C611.457 122.323 611.331 121.837 611.079 121.511C610.827 121.184 610.425 121.021 609.875 121.021C609.651 121.021 609.436 121.049 609.231 121.105C609.035 121.161 608.857 121.245 608.699 121.357C608.54 121.469 608.414 121.613 608.321 121.791C608.227 121.959 608.181 122.159 608.181 122.393V127.405H607.061V122.967C607.061 122.323 606.935 121.837 606.683 121.511C606.431 121.184 606.039 121.021 605.507 121.021C605.283 121.021 605.068 121.049 604.863 121.105C604.657 121.161 604.475 121.245 604.317 121.357C604.158 121.469 604.027 121.613 603.925 121.791C603.831 121.959 603.785 122.159 603.785 122.393V127.405H602.665ZM614.887 127.405V120.181H616.007V121.511H616.077C616.208 121.165 616.441 120.857 616.777 120.587C617.113 120.316 617.575 120.181 618.163 120.181H618.597V121.301H617.939C617.333 121.301 616.857 121.417 616.511 121.651C616.175 121.875 616.007 122.159 616.007 122.505V127.405H614.887ZM622.423 124.073C621.779 124.091 621.308 124.199 621.009 124.395C620.72 124.581 620.575 124.852 620.575 125.207V125.501C620.575 125.855 620.701 126.131 620.953 126.327C621.215 126.523 621.569 126.621 622.017 126.621C622.288 126.621 622.535 126.588 622.759 126.523C622.993 126.457 623.193 126.364 623.361 126.243C623.529 126.121 623.66 125.981 623.753 125.823C623.856 125.664 623.907 125.491 623.907 125.305V124.073H622.423ZM629.017 123.233V123.079C629.017 122.435 628.84 121.921 628.485 121.539C628.14 121.147 627.678 120.951 627.099 120.951C626.791 120.951 626.511 121.007 626.259 121.119C626.007 121.221 625.788 121.371 625.601 121.567C625.424 121.763 625.284 121.996 625.181 122.267C625.079 122.528 625.027 122.817 625.027 123.135V123.233H629.017ZM627.169 126.593C628.093 126.593 628.756 126.182 629.157 125.361L629.955 125.921C629.722 126.425 629.363 126.826 628.877 127.125C628.401 127.423 627.851 127.573 627.225 127.573C626.843 127.573 626.493 127.517 626.175 127.405C625.867 127.302 625.597 127.171 625.363 127.013C625.139 126.845 624.957 126.667 624.817 126.481C624.677 126.285 624.589 126.107 624.551 125.949H624.467C624.439 126.107 624.355 126.28 624.215 126.467C624.085 126.653 623.907 126.831 623.683 126.999C623.459 127.157 623.189 127.293 622.871 127.405C622.554 127.517 622.195 127.573 621.793 127.573C621.065 127.573 620.482 127.381 620.043 126.999C619.614 126.607 619.399 126.079 619.399 125.417C619.399 124.717 619.656 124.18 620.169 123.807C620.683 123.424 621.453 123.233 622.479 123.233H623.907V122.561C623.907 122.047 623.767 121.655 623.487 121.385C623.207 121.114 622.792 120.979 622.241 120.979C621.775 120.979 621.397 121.072 621.107 121.259C620.818 121.445 620.571 121.707 620.365 122.043L619.693 121.427C619.88 121.044 620.188 120.713 620.617 120.433C621.056 120.153 621.607 120.013 622.269 120.013C622.68 120.013 623.021 120.073 623.291 120.195C623.571 120.307 623.795 120.447 623.963 120.615C624.141 120.773 624.271 120.946 624.355 121.133C624.439 121.319 624.5 121.483 624.537 121.623H624.621C624.659 121.464 624.747 121.291 624.887 121.105C625.027 120.918 625.209 120.745 625.433 120.587C625.657 120.419 625.919 120.283 626.217 120.181C626.525 120.069 626.861 120.013 627.225 120.013C627.683 120.013 628.093 120.101 628.457 120.279C628.831 120.456 629.148 120.703 629.409 121.021C629.671 121.329 629.871 121.697 630.011 122.127C630.151 122.556 630.221 123.027 630.221 123.541V124.073H625.027V124.409C625.027 124.717 625.074 125.006 625.167 125.277C625.27 125.538 625.41 125.767 625.587 125.963C625.774 126.159 625.998 126.313 626.259 126.425C626.53 126.537 626.833 126.593 627.169 126.593ZM636.735 117.437L635.643 118.221C635.932 118.51 636.217 118.837 636.497 119.201C636.777 119.565 637.024 119.971 637.239 120.419C637.453 120.867 637.626 121.357 637.757 121.889C637.887 122.421 637.953 122.995 637.953 123.611C637.953 124.264 637.873 124.838 637.715 125.333C637.556 125.827 637.332 126.243 637.043 126.579C636.763 126.905 636.427 127.153 636.035 127.321C635.643 127.489 635.213 127.573 634.747 127.573C634.252 127.573 633.804 127.484 633.403 127.307C633.011 127.129 632.675 126.882 632.395 126.565C632.124 126.247 631.914 125.869 631.765 125.431C631.615 124.983 631.541 124.493 631.541 123.961C631.541 123.429 631.615 122.943 631.765 122.505C631.914 122.057 632.124 121.674 632.395 121.357C632.675 121.039 633.011 120.792 633.403 120.615C633.804 120.437 634.252 120.349 634.747 120.349C635.204 120.349 635.587 120.47 635.895 120.713C636.203 120.955 636.427 121.291 636.567 121.721L636.623 121.693C636.52 121.161 636.305 120.652 635.979 120.167C635.661 119.672 635.279 119.215 634.831 118.795L633.725 119.579L633.291 119.005L634.271 118.305C633.972 118.062 633.669 117.838 633.361 117.633C633.053 117.427 632.745 117.231 632.437 117.045H634.159C634.299 117.129 634.448 117.227 634.607 117.339C634.765 117.451 634.924 117.577 635.083 117.717L636.273 116.863L636.735 117.437ZM634.747 126.607C635.353 126.607 635.839 126.411 636.203 126.019C636.567 125.627 636.749 125.095 636.749 124.423V123.499C636.749 122.827 636.567 122.295 636.203 121.903C635.839 121.511 635.353 121.315 634.747 121.315C634.14 121.315 633.655 121.511 633.291 121.903C632.927 122.295 632.745 122.827 632.745 123.499V124.423C632.745 125.095 632.927 125.627 633.291 126.019C633.655 126.411 634.14 126.607 634.747 126.607ZM645.088 127.405C644.668 127.405 644.365 127.293 644.178 127.069C644.001 126.845 643.889 126.565 643.842 126.229H643.772C643.614 126.677 643.352 127.013 642.988 127.237C642.624 127.461 642.19 127.573 641.686 127.573C640.921 127.573 640.324 127.377 639.894 126.985C639.474 126.593 639.264 126.061 639.264 125.389C639.264 124.707 639.512 124.185 640.006 123.821C640.51 123.457 641.29 123.275 642.344 123.275H643.772V122.561C643.772 122.047 643.632 121.655 643.352 121.385C643.072 121.114 642.643 120.979 642.064 120.979C641.626 120.979 641.257 121.077 640.958 121.273C640.669 121.469 640.426 121.73 640.23 122.057L639.558 121.427C639.754 121.035 640.067 120.703 640.496 120.433C640.926 120.153 641.467 120.013 642.12 120.013C642.998 120.013 643.679 120.227 644.164 120.657C644.65 121.086 644.892 121.683 644.892 122.449V126.425H645.718V127.405H645.088ZM641.868 126.621C642.148 126.621 642.405 126.588 642.638 126.523C642.872 126.457 643.072 126.364 643.24 126.243C643.408 126.121 643.539 125.981 643.632 125.823C643.726 125.664 643.772 125.491 643.772 125.305V124.115H642.288C641.644 124.115 641.173 124.208 640.874 124.395C640.585 124.581 640.44 124.852 640.44 125.207V125.501C640.44 125.855 640.566 126.131 640.818 126.327C641.08 126.523 641.43 126.621 641.868 126.621Z" fill="#00003C"/>
  <circle cx="720.5" cy="86.4048" r="15.5" fill="#F6F6FD" stroke="#4649D0"/>
  <path d="M718.146 92.8047L722.52 82.1667H718.182V84.4707H716.166V80.2407H724.878V82.2747L720.63 92.8047H718.146Z" fill="#4649D0"/>
  <path d="M710.302 127.405V117.633H711.478V126.369H715.636V127.405H710.302ZM719.797 127.573C719.312 127.573 718.868 127.484 718.467 127.307C718.066 127.129 717.72 126.877 717.431 126.551C717.151 126.215 716.932 125.818 716.773 125.361C716.614 124.894 716.535 124.371 716.535 123.793C716.535 123.223 716.614 122.705 716.773 122.239C716.932 121.772 717.151 121.375 717.431 121.049C717.72 120.713 718.066 120.456 718.467 120.279C718.868 120.101 719.312 120.013 719.797 120.013C720.282 120.013 720.721 120.101 721.113 120.279C721.514 120.456 721.86 120.713 722.149 121.049C722.438 121.375 722.662 121.772 722.821 122.239C722.98 122.705 723.059 123.223 723.059 123.793C723.059 124.371 722.98 124.894 722.821 125.361C722.662 125.818 722.438 126.215 722.149 126.551C721.86 126.877 721.514 127.129 721.113 127.307C720.721 127.484 720.282 127.573 719.797 127.573ZM719.797 126.579C720.404 126.579 720.898 126.392 721.281 126.019C721.664 125.645 721.855 125.076 721.855 124.311V123.275C721.855 122.509 721.664 121.94 721.281 121.567C720.898 121.193 720.404 121.007 719.797 121.007C719.19 121.007 718.696 121.193 718.313 121.567C717.93 121.94 717.739 122.509 717.739 123.275V124.311C717.739 125.076 717.93 125.645 718.313 126.019C718.696 126.392 719.19 126.579 719.797 126.579ZM718.509 118.753C718.266 118.753 718.089 118.697 717.977 118.585C717.874 118.463 717.823 118.305 717.823 118.109V117.955C717.823 117.759 717.874 117.605 717.977 117.493C718.089 117.371 718.266 117.311 718.509 117.311C718.752 117.311 718.924 117.371 719.027 117.493C719.139 117.605 719.195 117.759 719.195 117.955V118.109C719.195 118.305 719.139 118.463 719.027 118.585C718.924 118.697 718.752 118.753 718.509 118.753ZM721.113 118.753C720.87 118.753 720.693 118.697 720.581 118.585C720.478 118.463 720.427 118.305 720.427 118.109V117.955C720.427 117.759 720.478 117.605 720.581 117.493C720.693 117.371 720.87 117.311 721.113 117.311C721.356 117.311 721.528 117.371 721.631 117.493C721.743 117.605 721.799 117.759 721.799 117.955V118.109C721.799 118.305 721.743 118.463 721.631 118.585C721.528 118.697 721.356 118.753 721.113 118.753ZM730.991 128.203C730.991 128.949 730.697 129.495 730.109 129.841C729.53 130.195 728.658 130.373 727.491 130.373C726.362 130.373 725.55 130.219 725.055 129.911C724.56 129.603 724.313 129.164 724.313 128.595C724.313 128.203 724.416 127.895 724.621 127.671C724.826 127.456 725.106 127.297 725.461 127.195V127.041C725.032 126.835 724.817 126.499 724.817 126.033C724.817 125.669 724.934 125.393 725.167 125.207C725.4 125.011 725.699 124.866 726.063 124.773V124.717C725.634 124.511 725.298 124.217 725.055 123.835C724.822 123.452 724.705 123.009 724.705 122.505C724.705 122.141 724.77 121.805 724.901 121.497C725.032 121.189 725.214 120.927 725.447 120.713C725.69 120.489 725.974 120.316 726.301 120.195C726.637 120.073 727.01 120.013 727.421 120.013C727.934 120.013 728.392 120.106 728.793 120.293V120.167C728.793 119.887 728.858 119.658 728.989 119.481C729.12 119.294 729.334 119.201 729.633 119.201H730.711V120.181H729.339V120.643C729.6 120.867 729.801 121.137 729.941 121.455C730.09 121.763 730.165 122.113 730.165 122.505C730.165 122.869 730.1 123.205 729.969 123.513C729.838 123.821 729.652 124.087 729.409 124.311C729.176 124.525 728.891 124.693 728.555 124.815C728.219 124.936 727.846 124.997 727.435 124.997C727.202 124.997 726.968 124.973 726.735 124.927C726.492 124.992 726.273 125.09 726.077 125.221C725.881 125.342 725.783 125.515 725.783 125.739C725.783 125.953 725.886 126.098 726.091 126.173C726.296 126.247 726.562 126.285 726.889 126.285H728.429C729.325 126.285 729.974 126.457 730.375 126.803C730.786 127.139 730.991 127.605 730.991 128.203ZM729.941 128.287C729.941 127.997 729.829 127.764 729.605 127.587C729.39 127.419 729.003 127.335 728.443 127.335H726.035C725.587 127.54 725.363 127.867 725.363 128.315C725.363 128.632 725.48 128.903 725.713 129.127C725.956 129.351 726.362 129.463 726.931 129.463H727.967C728.592 129.463 729.078 129.365 729.423 129.169C729.768 128.973 729.941 128.679 729.941 128.287ZM727.435 124.101C727.911 124.101 728.289 123.989 728.569 123.765C728.849 123.531 728.989 123.177 728.989 122.701V122.309C728.989 121.833 728.849 121.483 728.569 121.259C728.289 121.025 727.911 120.909 727.435 120.909C726.959 120.909 726.581 121.025 726.301 121.259C726.021 121.483 725.881 121.833 725.881 122.309V122.701C725.881 123.177 726.021 123.531 726.301 123.765C726.581 123.989 726.959 124.101 727.435 124.101Z" fill="#00003C"/>
  </svg>
