<svg xmlns="http://www.w3.org/2000/svg" width="16" height="17" viewBox="0 0 16 17" fill="none">
  <g clip-path="url(#clip0_281_2231)">
    <path d="M3.00273 1.62993C2.49648 1.82681 2.06836 2.08931 1.64023 2.51743C1.21211 2.94243 0.949609 3.37368 0.752734 3.87681C0.562109 4.36431 0.433984 4.92368 0.396484 5.74243C0.358984 6.56118 0.349609 6.82368 0.349609 8.91118C0.349609 10.9987 0.358984 11.2612 0.396484 12.0799C0.433984 12.8987 0.565234 13.4581 0.752734 13.9456C0.949609 14.4518 1.21211 14.8799 1.64023 15.3081C2.06836 15.7362 2.49648 15.9987 3.00273 16.1956C3.49023 16.3862 4.04961 16.5143 4.86836 16.5518C5.68711 16.5893 5.94961 16.5987 8.03711 16.5987C10.1246 16.5987 10.3871 16.5893 11.2059 16.5518C12.0246 16.5143 12.584 16.3831 13.0715 16.1956C13.5777 15.9987 14.0059 15.7362 14.434 15.3081C14.8621 14.8799 15.1246 14.4518 15.3215 13.9456C15.5121 13.4581 15.6402 12.8987 15.6777 12.0799C15.7152 11.2612 15.7246 10.9987 15.7246 8.91118C15.7246 6.82368 15.7152 6.56118 15.6777 5.74243C15.6402 4.92368 15.509 4.36431 15.3215 3.87681C15.1246 3.37368 14.8621 2.94243 14.4371 2.51743C14.009 2.08931 13.5809 1.82681 13.0746 1.62993C12.5871 1.43931 12.0277 1.31118 11.209 1.27368C10.3902 1.23618 10.1277 1.22681 8.04023 1.22681C5.95273 1.22681 5.69023 1.23618 4.87148 1.27368C4.04961 1.30806 3.49023 1.43931 3.00273 1.62993ZM11.1434 2.65493C11.8934 2.68931 12.2996 2.81431 12.5715 2.92056C12.9309 3.06118 13.1871 3.22681 13.4559 3.49556C13.7246 3.76431 13.8902 4.02056 14.0309 4.37993C14.1371 4.65181 14.2621 5.05806 14.2965 5.80806C14.334 6.61743 14.3402 6.86118 14.3402 8.91431C14.3402 10.9674 14.3309 11.2112 14.2965 12.0206C14.2621 12.7706 14.1371 13.1768 14.0309 13.4487C13.8902 13.8081 13.7246 14.0643 13.4559 14.3331C13.1871 14.6018 12.9309 14.7674 12.5715 14.9081C12.2996 15.0143 11.8934 15.1393 11.1434 15.1737C10.334 15.2112 10.0902 15.2174 8.03711 15.2174C5.98398 15.2174 5.74023 15.2081 4.93086 15.1737C4.18086 15.1393 3.77461 15.0143 3.50273 14.9081C3.14336 14.7674 2.88711 14.6018 2.61836 14.3331C2.34961 14.0643 2.18398 13.8081 2.04336 13.4487C1.93711 13.1768 1.81211 12.7706 1.77773 12.0206C1.74023 11.2112 1.73398 10.9674 1.73398 8.91431C1.73398 6.86118 1.74336 6.61743 1.77773 5.80806C1.81211 5.05806 1.93711 4.65181 2.04336 4.37993C2.18398 4.02056 2.34961 3.76431 2.61836 3.49556C2.88711 3.22681 3.14336 3.06118 3.50273 2.92056C3.77461 2.81431 4.18086 2.68931 4.93086 2.65493C5.74023 2.61743 5.98398 2.61118 8.03711 2.61118C10.0902 2.61118 10.334 2.61743 11.1434 2.65493Z" fill="url(#paint0_radial_281_2231)"/>
    <path d="M4.08984 8.91428C4.08984 11.0955 5.85859 12.8612 8.03672 12.8612C10.2148 12.8612 11.9836 11.0924 11.9836 8.91428C11.9836 6.73616 10.218 4.96741 8.03672 4.96741C5.85547 4.96741 4.08984 6.73303 4.08984 8.91428ZM10.5992 8.91428C10.5992 10.3299 9.45234 11.4768 8.03672 11.4768C6.62109 11.4768 5.47422 10.3299 5.47422 8.91428C5.47422 7.49866 6.62109 6.35178 8.03672 6.35178C9.45234 6.35178 10.5992 7.49866 10.5992 8.91428Z" fill="url(#paint1_radial_281_2231)"/>
    <path d="M12.1436 5.73303C12.6527 5.73303 13.0654 5.32029 13.0654 4.81116C13.0654 4.30202 12.6527 3.88928 12.1436 3.88928C11.6344 3.88928 11.2217 4.30202 11.2217 4.81116C11.2217 5.32029 11.6344 5.73303 12.1436 5.73303Z" fill="#654C9F"/>
  </g>
  <defs>
    <radialGradient id="paint0_radial_281_2231" cx="0" cy="0" r="1" gradientUnits="userSpaceOnUse" gradientTransform="translate(0.629358 15.1913) rotate(-3.00009) scale(22.2286 18.8941)">
      <stop stop-color="#FED576"/>
      <stop offset="0.2634" stop-color="#F47133"/>
      <stop offset="0.6091" stop-color="#BC3081"/>
      <stop offset="1" stop-color="#4C63D2"/>
    </radialGradient>
    <radialGradient id="paint1_radial_281_2231" cx="0" cy="0" r="1" gradientUnits="userSpaceOnUse" gradientTransform="translate(4.23301 12.1373) rotate(-3.00009) scale(11.4147 9.70235)">
      <stop stop-color="#FED576"/>
      <stop offset="0.2634" stop-color="#F47133"/>
      <stop offset="0.6091" stop-color="#BC3081"/>
      <stop offset="1" stop-color="#4C63D2"/>
    </radialGradient>
    <clipPath id="clip0_281_2231">
      <rect width="16" height="16" fill="white" transform="translate(0 0.904907)"/>
    </clipPath>
  </defs>
</svg>